<mxfile host="65bd71144e" pages="4">
    <diagram id="CxApWNCSYIXbRdS2j37-" name="0.项目功能架构">
        <mxGraphModel dx="1143" dy="648" grid="1" gridSize="10" guides="1" tooltips="1" connect="1" arrows="1" fold="1" page="1" pageScale="1" pageWidth="850" pageHeight="1100" math="0" shadow="0">
            <root>
                <mxCell id="0"/>
                <mxCell id="1" parent="0"/>
                <mxCell id="22" style="edgeStyle=none;html=1;exitX=0.5;exitY=1;exitDx=0;exitDy=0;entryX=0.5;entryY=0;entryDx=0;entryDy=0;" parent="1" source="2" target="5" edge="1">
                    <mxGeometry relative="1" as="geometry"/>
                </mxCell>
                <mxCell id="24" style="edgeStyle=none;html=1;exitX=0.5;exitY=1;exitDx=0;exitDy=0;entryX=0.5;entryY=0;entryDx=0;entryDy=0;rounded=0;" parent="1" source="2" target="4" edge="1">
                    <mxGeometry relative="1" as="geometry">
                        <Array as="points">
                            <mxPoint x="645" y="380"/>
                            <mxPoint x="315" y="380"/>
                        </Array>
                    </mxGeometry>
                </mxCell>
                <mxCell id="25" style="edgeStyle=none;html=1;exitX=0.5;exitY=1;exitDx=0;exitDy=0;entryX=0.5;entryY=0;entryDx=0;entryDy=0;rounded=0;" parent="1" source="2" target="6" edge="1">
                    <mxGeometry relative="1" as="geometry">
                        <Array as="points">
                            <mxPoint x="645" y="380"/>
                            <mxPoint x="980" y="380"/>
                        </Array>
                    </mxGeometry>
                </mxCell>
                <mxCell id="YSkzOXEj76_cFWQc9m9p-46" style="edgeStyle=none;html=1;exitX=0.5;exitY=1;exitDx=0;exitDy=0;entryX=0.5;entryY=0;entryDx=0;entryDy=0;rounded=0;" edge="1" parent="1" source="2" target="YSkzOXEj76_cFWQc9m9p-42">
                    <mxGeometry relative="1" as="geometry">
                        <Array as="points">
                            <mxPoint x="645" y="380"/>
                            <mxPoint x="105" y="380"/>
                        </Array>
                    </mxGeometry>
                </mxCell>
                <mxCell id="YSkzOXEj76_cFWQc9m9p-52" style="edgeStyle=none;rounded=0;html=1;exitX=0.5;exitY=1;exitDx=0;exitDy=0;entryX=0.5;entryY=0;entryDx=0;entryDy=0;" edge="1" parent="1" source="2" target="YSkzOXEj76_cFWQc9m9p-49">
                    <mxGeometry relative="1" as="geometry">
                        <Array as="points">
                            <mxPoint x="645" y="380"/>
                            <mxPoint x="1225" y="380"/>
                        </Array>
                    </mxGeometry>
                </mxCell>
                <mxCell id="2" value="&lt;p class=&quot;MsoNormal&quot;&gt;河北省教师资格考试数据分析系统&lt;/p&gt;" style="whiteSpace=wrap;html=1;" parent="1" vertex="1">
                    <mxGeometry x="525" y="300" width="240" height="40" as="geometry"/>
                </mxCell>
                <mxCell id="26" style="edgeStyle=none;rounded=0;html=1;exitX=0.5;exitY=1;exitDx=0;exitDy=0;entryX=0.5;entryY=0;entryDx=0;entryDy=0;endArrow=none;endFill=0;" parent="1" source="4" target="7" edge="1">
                    <mxGeometry relative="1" as="geometry">
                        <Array as="points">
                            <mxPoint x="315" y="500"/>
                            <mxPoint x="265" y="500"/>
                        </Array>
                    </mxGeometry>
                </mxCell>
                <mxCell id="27" style="edgeStyle=none;rounded=0;html=1;exitX=0.5;exitY=1;exitDx=0;exitDy=0;entryX=0.5;entryY=0;entryDx=0;entryDy=0;endArrow=none;endFill=0;" parent="1" source="4" target="8" edge="1">
                    <mxGeometry relative="1" as="geometry"/>
                </mxCell>
                <mxCell id="28" style="edgeStyle=none;rounded=0;html=1;exitX=0.5;exitY=1;exitDx=0;exitDy=0;entryX=0.5;entryY=0;entryDx=0;entryDy=0;endArrow=none;endFill=0;" parent="1" source="4" target="9" edge="1">
                    <mxGeometry relative="1" as="geometry">
                        <Array as="points">
                            <mxPoint x="315" y="500"/>
                            <mxPoint x="365" y="500"/>
                        </Array>
                    </mxGeometry>
                </mxCell>
                <mxCell id="4" value="用户管理" style="whiteSpace=wrap;html=1;" parent="1" vertex="1">
                    <mxGeometry x="255" y="420" width="120" height="40" as="geometry"/>
                </mxCell>
                <mxCell id="30" style="edgeStyle=none;rounded=0;html=1;exitX=0.5;exitY=1;exitDx=0;exitDy=0;entryX=0.5;entryY=0;entryDx=0;entryDy=0;endArrow=none;endFill=0;" parent="1" source="5" target="10" edge="1">
                    <mxGeometry relative="1" as="geometry">
                        <Array as="points">
                            <mxPoint x="645" y="490"/>
                            <mxPoint x="530" y="490"/>
                        </Array>
                    </mxGeometry>
                </mxCell>
                <mxCell id="31" style="edgeStyle=none;rounded=0;html=1;exitX=0.5;exitY=1;exitDx=0;exitDy=0;entryX=0.5;entryY=0;entryDx=0;entryDy=0;endArrow=none;endFill=0;" parent="1" source="5" target="11" edge="1">
                    <mxGeometry relative="1" as="geometry"/>
                </mxCell>
                <mxCell id="32" style="edgeStyle=none;rounded=0;html=1;exitX=0.5;exitY=1;exitDx=0;exitDy=0;entryX=0.5;entryY=0;entryDx=0;entryDy=0;endArrow=none;endFill=0;" parent="1" source="5" target="12" edge="1">
                    <mxGeometry relative="1" as="geometry">
                        <Array as="points">
                            <mxPoint x="645" y="490"/>
                            <mxPoint x="760" y="490"/>
                        </Array>
                    </mxGeometry>
                </mxCell>
                <mxCell id="5" value="数据管理" style="whiteSpace=wrap;html=1;" parent="1" vertex="1">
                    <mxGeometry x="585" y="420" width="120" height="40" as="geometry"/>
                </mxCell>
                <mxCell id="37" style="edgeStyle=none;rounded=0;html=1;exitX=0.5;exitY=1;exitDx=0;exitDy=0;entryX=0.5;entryY=0;entryDx=0;entryDy=0;endArrow=none;endFill=0;" parent="1" source="6" target="19" edge="1">
                    <mxGeometry relative="1" as="geometry">
                        <Array as="points">
                            <mxPoint x="980" y="500"/>
                            <mxPoint x="900" y="500"/>
                        </Array>
                    </mxGeometry>
                </mxCell>
                <mxCell id="38" style="edgeStyle=none;rounded=0;html=1;exitX=0.5;exitY=1;exitDx=0;exitDy=0;entryX=0.5;entryY=0;entryDx=0;entryDy=0;endArrow=none;endFill=0;" parent="1" source="6" target="20" edge="1">
                    <mxGeometry relative="1" as="geometry"/>
                </mxCell>
                <mxCell id="39" style="edgeStyle=none;rounded=0;html=1;exitX=0.5;exitY=1;exitDx=0;exitDy=0;entryX=0.5;entryY=0;entryDx=0;entryDy=0;endArrow=none;endFill=0;" parent="1" source="6" target="21" edge="1">
                    <mxGeometry relative="1" as="geometry">
                        <Array as="points">
                            <mxPoint x="980" y="500"/>
                            <mxPoint x="1060" y="500"/>
                        </Array>
                    </mxGeometry>
                </mxCell>
                <mxCell id="6" value="数据分析" style="whiteSpace=wrap;html=1;" parent="1" vertex="1">
                    <mxGeometry x="920" y="420" width="120" height="40" as="geometry"/>
                </mxCell>
                <mxCell id="7" value="用&lt;br&gt;户&lt;br&gt;新&lt;br&gt;增" style="whiteSpace=wrap;html=1;" parent="1" vertex="1">
                    <mxGeometry x="250" y="540" width="30" height="160" as="geometry"/>
                </mxCell>
                <mxCell id="8" value="密&lt;br&gt;码&lt;br&gt;修&lt;br&gt;改" style="whiteSpace=wrap;html=1;" parent="1" vertex="1">
                    <mxGeometry x="300" y="540" width="30" height="160" as="geometry"/>
                </mxCell>
                <mxCell id="9" value="用&lt;br&gt;户&lt;br&gt;删&lt;br&gt;除" style="whiteSpace=wrap;html=1;" parent="1" vertex="1">
                    <mxGeometry x="350" y="540" width="30" height="160" as="geometry"/>
                </mxCell>
                <mxCell id="34" style="edgeStyle=none;rounded=0;html=1;exitX=0.5;exitY=1;exitDx=0;exitDy=0;entryX=0.5;entryY=0;entryDx=0;entryDy=0;endArrow=none;endFill=0;" parent="1" source="10" target="33" edge="1">
                    <mxGeometry relative="1" as="geometry">
                        <Array as="points">
                            <mxPoint x="530" y="620"/>
                            <mxPoint x="645" y="620"/>
                        </Array>
                    </mxGeometry>
                </mxCell>
                <mxCell id="10" value="教师资格考试&lt;br&gt;成绩数据管理" style="whiteSpace=wrap;html=1;" parent="1" vertex="1">
                    <mxGeometry x="480" y="520" width="100" height="50" as="geometry"/>
                </mxCell>
                <mxCell id="35" style="edgeStyle=none;rounded=0;html=1;exitX=0.5;exitY=1;exitDx=0;exitDy=0;entryX=0.5;entryY=0;entryDx=0;entryDy=0;endArrow=none;endFill=0;" parent="1" source="11" target="33" edge="1">
                    <mxGeometry relative="1" as="geometry"/>
                </mxCell>
                <mxCell id="11" value="教师资格考试&lt;br&gt;证书数据管理" style="whiteSpace=wrap;html=1;" parent="1" vertex="1">
                    <mxGeometry x="595" y="520" width="100" height="50" as="geometry"/>
                </mxCell>
                <mxCell id="36" style="edgeStyle=none;rounded=0;html=1;exitX=0.5;exitY=1;exitDx=0;exitDy=0;entryX=0.5;entryY=0;entryDx=0;entryDy=0;endArrow=none;endFill=0;" parent="1" source="12" target="33" edge="1">
                    <mxGeometry relative="1" as="geometry">
                        <Array as="points">
                            <mxPoint x="760" y="620"/>
                            <mxPoint x="645" y="620"/>
                        </Array>
                    </mxGeometry>
                </mxCell>
                <mxCell id="12" value="教师资格考试&lt;br&gt;认定数据管理" style="whiteSpace=wrap;html=1;" parent="1" vertex="1">
                    <mxGeometry x="710" y="520" width="100" height="50" as="geometry"/>
                </mxCell>
                <mxCell id="13" value="数&lt;br&gt;据&lt;br&gt;导&lt;br&gt;入&lt;br&gt;、&lt;br&gt;导&lt;br&gt;出" style="whiteSpace=wrap;html=1;" parent="1" vertex="1">
                    <mxGeometry x="495" y="700" width="30" height="160" as="geometry"/>
                </mxCell>
                <mxCell id="14" value="数&lt;br&gt;据&lt;br&gt;组&lt;br&gt;合&lt;br&gt;查&lt;br&gt;询" style="whiteSpace=wrap;html=1;" parent="1" vertex="1">
                    <mxGeometry x="585" y="700" width="30" height="160" as="geometry"/>
                </mxCell>
                <mxCell id="15" value="数&lt;br&gt;据&lt;br&gt;删&lt;br&gt;除&lt;br&gt;、&lt;br&gt;添&lt;br&gt;加" style="whiteSpace=wrap;html=1;" parent="1" vertex="1">
                    <mxGeometry x="680" y="700" width="30" height="160" as="geometry"/>
                </mxCell>
                <mxCell id="16" value="数&lt;br&gt;据&lt;br&gt;备&lt;br&gt;份&lt;br&gt;、&lt;br&gt;恢&lt;br&gt;复" style="whiteSpace=wrap;html=1;" parent="1" vertex="1">
                    <mxGeometry x="765" y="700" width="30" height="160" as="geometry"/>
                </mxCell>
                <mxCell id="19" value="考&lt;br&gt;试&lt;br&gt;成&lt;br&gt;绩&lt;br&gt;数&lt;br&gt;据&lt;br&gt;分&lt;br&gt;析&lt;br&gt;及&lt;br&gt;可&lt;br&gt;视&lt;br&gt;化" style="whiteSpace=wrap;html=1;" parent="1" vertex="1">
                    <mxGeometry x="880" y="540" width="40" height="230" as="geometry"/>
                </mxCell>
                <mxCell id="20" value="考&lt;br&gt;试&lt;br&gt;证&lt;br&gt;书&lt;br&gt;数&lt;br&gt;据&lt;br&gt;分&lt;br&gt;析&lt;br&gt;及&lt;br&gt;可&lt;br&gt;视&lt;br&gt;化" style="whiteSpace=wrap;html=1;" parent="1" vertex="1">
                    <mxGeometry x="960" y="540" width="40" height="230" as="geometry"/>
                </mxCell>
                <mxCell id="21" value="认&lt;br&gt;定&lt;br&gt;数&lt;br&gt;据&lt;br&gt;分&lt;br&gt;析&lt;br&gt;及&lt;br&gt;可&lt;br&gt;视&lt;br&gt;化" style="whiteSpace=wrap;html=1;" parent="1" vertex="1">
                    <mxGeometry x="1040" y="540" width="40" height="230" as="geometry"/>
                </mxCell>
                <mxCell id="33" value="" style="whiteSpace=wrap;html=1;fillColor=none;dashed=1;" parent="1" vertex="1">
                    <mxGeometry x="440" y="670" width="410" height="220" as="geometry"/>
                </mxCell>
                <mxCell id="YSkzOXEj76_cFWQc9m9p-39" style="edgeStyle=none;rounded=0;html=1;exitX=0.5;exitY=1;exitDx=0;exitDy=0;entryX=0.5;entryY=0;entryDx=0;entryDy=0;endArrow=none;endFill=0;" edge="1" parent="1" source="YSkzOXEj76_cFWQc9m9p-42" target="YSkzOXEj76_cFWQc9m9p-43">
                    <mxGeometry relative="1" as="geometry">
                        <Array as="points">
                            <mxPoint x="105" y="500"/>
                            <mxPoint x="55" y="500"/>
                        </Array>
                    </mxGeometry>
                </mxCell>
                <mxCell id="YSkzOXEj76_cFWQc9m9p-41" style="edgeStyle=none;rounded=0;html=1;exitX=0.5;exitY=1;exitDx=0;exitDy=0;entryX=0.5;entryY=0;entryDx=0;entryDy=0;endArrow=none;endFill=0;" edge="1" parent="1" source="YSkzOXEj76_cFWQc9m9p-42" target="YSkzOXEj76_cFWQc9m9p-45">
                    <mxGeometry relative="1" as="geometry">
                        <Array as="points">
                            <mxPoint x="105" y="500"/>
                            <mxPoint x="155" y="500"/>
                        </Array>
                    </mxGeometry>
                </mxCell>
                <mxCell id="YSkzOXEj76_cFWQc9m9p-42" value="数据大屏" style="whiteSpace=wrap;html=1;" vertex="1" parent="1">
                    <mxGeometry x="45" y="420" width="120" height="40" as="geometry"/>
                </mxCell>
                <mxCell id="YSkzOXEj76_cFWQc9m9p-43" value="数&lt;br&gt;据&lt;br&gt;大&lt;br&gt;屏" style="whiteSpace=wrap;html=1;" vertex="1" parent="1">
                    <mxGeometry x="40" y="540" width="30" height="160" as="geometry"/>
                </mxCell>
                <mxCell id="YSkzOXEj76_cFWQc9m9p-45" value="数&lt;br&gt;据&lt;br&gt;看&lt;br&gt;板" style="whiteSpace=wrap;html=1;" vertex="1" parent="1">
                    <mxGeometry x="140" y="540" width="30" height="160" as="geometry"/>
                </mxCell>
                <mxCell id="YSkzOXEj76_cFWQc9m9p-47" style="edgeStyle=none;rounded=0;html=1;exitX=0.5;exitY=1;exitDx=0;exitDy=0;entryX=0.5;entryY=0;entryDx=0;entryDy=0;endArrow=none;endFill=0;" edge="1" parent="1" source="YSkzOXEj76_cFWQc9m9p-49" target="YSkzOXEj76_cFWQc9m9p-50">
                    <mxGeometry relative="1" as="geometry">
                        <Array as="points">
                            <mxPoint x="1225" y="500"/>
                            <mxPoint x="1175" y="500"/>
                        </Array>
                    </mxGeometry>
                </mxCell>
                <mxCell id="YSkzOXEj76_cFWQc9m9p-48" style="edgeStyle=none;rounded=0;html=1;exitX=0.5;exitY=1;exitDx=0;exitDy=0;entryX=0.5;entryY=0;entryDx=0;entryDy=0;endArrow=none;endFill=0;" edge="1" parent="1" source="YSkzOXEj76_cFWQc9m9p-49" target="YSkzOXEj76_cFWQc9m9p-51">
                    <mxGeometry relative="1" as="geometry">
                        <Array as="points">
                            <mxPoint x="1225" y="500"/>
                            <mxPoint x="1275" y="500"/>
                        </Array>
                    </mxGeometry>
                </mxCell>
                <mxCell id="YSkzOXEj76_cFWQc9m9p-49" value="数据备份和恢复" style="whiteSpace=wrap;html=1;" vertex="1" parent="1">
                    <mxGeometry x="1165" y="420" width="120" height="40" as="geometry"/>
                </mxCell>
                <mxCell id="YSkzOXEj76_cFWQc9m9p-50" value="数&lt;br&gt;据&lt;br&gt;备&lt;br&gt;份" style="whiteSpace=wrap;html=1;" vertex="1" parent="1">
                    <mxGeometry x="1160" y="540" width="30" height="160" as="geometry"/>
                </mxCell>
                <mxCell id="YSkzOXEj76_cFWQc9m9p-51" value="数&lt;br&gt;据&lt;br&gt;恢&lt;br&gt;复" style="whiteSpace=wrap;html=1;" vertex="1" parent="1">
                    <mxGeometry x="1260" y="540" width="30" height="160" as="geometry"/>
                </mxCell>
            </root>
        </mxGraphModel>
    </diagram>
    <diagram id="AS90tVbxAB303TSxwsdy" name="2.系统关键技术">
        <mxGraphModel dx="944" dy="648" grid="1" gridSize="10" guides="1" tooltips="1" connect="1" arrows="1" fold="1" page="1" pageScale="1" pageWidth="827" pageHeight="1169" math="0" shadow="0">
            <root>
                <mxCell id="v5pVFf8WuT5oX3Xv5NZD-0"/>
                <mxCell id="v5pVFf8WuT5oX3Xv5NZD-1" parent="v5pVFf8WuT5oX3Xv5NZD-0"/>
                <mxCell id="RDQMdI9TkchYn4Y29qCX-0" value="前&lt;br&gt;端" style="whiteSpace=wrap;html=1;" parent="v5pVFf8WuT5oX3Xv5NZD-1" vertex="1">
                    <mxGeometry x="190" y="80" width="40" height="80" as="geometry"/>
                </mxCell>
                <mxCell id="RDQMdI9TkchYn4Y29qCX-1" value="后&lt;br&gt;端" style="whiteSpace=wrap;html=1;" parent="v5pVFf8WuT5oX3Xv5NZD-1" vertex="1">
                    <mxGeometry x="190" y="280" width="40" height="80" as="geometry"/>
                </mxCell>
                <mxCell id="RDQMdI9TkchYn4Y29qCX-2" value="" style="html=1;rounded=0;edgeStyle=orthogonalEdgeStyle;endArrow=none;endFill=0;dashed=1;" parent="v5pVFf8WuT5oX3Xv5NZD-1" edge="1">
                    <mxGeometry width="100" relative="1" as="geometry">
                        <mxPoint x="160" y="200" as="sourcePoint"/>
                        <mxPoint x="670" y="200" as="targetPoint"/>
                    </mxGeometry>
                </mxCell>
                <mxCell id="RDQMdI9TkchYn4Y29qCX-3" value="" style="rounded=0;whiteSpace=wrap;html=1;fillColor=none;" parent="v5pVFf8WuT5oX3Xv5NZD-1" vertex="1">
                    <mxGeometry x="310" y="270" width="260" height="160" as="geometry"/>
                </mxCell>
                <mxCell id="RDQMdI9TkchYn4Y29qCX-30" value="" style="endArrow=classic;html=1;rounded=0;dashed=1;exitX=0.5;exitY=1;exitDx=0;exitDy=0;entryX=0.25;entryY=0;entryDx=0;entryDy=0;" parent="v5pVFf8WuT5oX3Xv5NZD-1" source="RDQMdI9TkchYn4Y29qCX-45" target="RDQMdI9TkchYn4Y29qCX-3" edge="1">
                    <mxGeometry width="50" height="50" relative="1" as="geometry">
                        <mxPoint x="313.8000000000002" y="130.72000000000003" as="sourcePoint"/>
                        <mxPoint x="300" y="210" as="targetPoint"/>
                    </mxGeometry>
                </mxCell>
                <mxCell id="RDQMdI9TkchYn4Y29qCX-33" value="请求" style="edgeLabel;html=1;align=center;verticalAlign=middle;resizable=0;points=[];" parent="RDQMdI9TkchYn4Y29qCX-30" vertex="1" connectable="0">
                    <mxGeometry x="0.3317" relative="1" as="geometry">
                        <mxPoint as="offset"/>
                    </mxGeometry>
                </mxCell>
                <mxCell id="RDQMdI9TkchYn4Y29qCX-31" value="" style="endArrow=classic;html=1;rounded=0;dashed=1;exitX=0.644;exitY=1.038;exitDx=0;exitDy=0;exitPerimeter=0;entryX=0.5;entryY=0;entryDx=0;entryDy=0;" parent="v5pVFf8WuT5oX3Xv5NZD-1" source="RDQMdI9TkchYn4Y29qCX-46" target="RDQMdI9TkchYn4Y29qCX-3" edge="1">
                    <mxGeometry width="50" height="50" relative="1" as="geometry">
                        <mxPoint x="441.19000000000005" y="122.72000000000003" as="sourcePoint"/>
                        <mxPoint x="385" y="289.9999999999999" as="targetPoint"/>
                    </mxGeometry>
                </mxCell>
                <mxCell id="RDQMdI9TkchYn4Y29qCX-34" value="请求" style="edgeLabel;html=1;align=center;verticalAlign=middle;resizable=0;points=[];" parent="RDQMdI9TkchYn4Y29qCX-31" vertex="1" connectable="0">
                    <mxGeometry x="0.4014" y="-1" relative="1" as="geometry">
                        <mxPoint as="offset"/>
                    </mxGeometry>
                </mxCell>
                <mxCell id="RDQMdI9TkchYn4Y29qCX-32" value="" style="endArrow=classic;html=1;rounded=0;dashed=1;exitX=0.342;exitY=1.051;exitDx=0;exitDy=0;entryX=0.75;entryY=0;entryDx=0;entryDy=0;exitPerimeter=0;" parent="v5pVFf8WuT5oX3Xv5NZD-1" source="RDQMdI9TkchYn4Y29qCX-47" target="RDQMdI9TkchYn4Y29qCX-3" edge="1">
                    <mxGeometry width="50" height="50" relative="1" as="geometry">
                        <mxPoint x="578.3199999999999" y="120" as="sourcePoint"/>
                        <mxPoint x="395" y="299.9999999999999" as="targetPoint"/>
                    </mxGeometry>
                </mxCell>
                <mxCell id="RDQMdI9TkchYn4Y29qCX-35" value="请求" style="edgeLabel;html=1;align=center;verticalAlign=middle;resizable=0;points=[];" parent="RDQMdI9TkchYn4Y29qCX-32" vertex="1" connectable="0">
                    <mxGeometry x="0.3933" relative="1" as="geometry">
                        <mxPoint as="offset"/>
                    </mxGeometry>
                </mxCell>
                <mxCell id="RDQMdI9TkchYn4Y29qCX-36" value="" style="endArrow=classic;html=1;rounded=0;dashed=1;exitX=0.215;exitY=-0.02;exitDx=0;exitDy=0;exitPerimeter=0;entryX=0.25;entryY=1;entryDx=0;entryDy=0;" parent="v5pVFf8WuT5oX3Xv5NZD-1" source="RDQMdI9TkchYn4Y29qCX-3" target="RDQMdI9TkchYn4Y29qCX-45" edge="1">
                    <mxGeometry width="50" height="50" relative="1" as="geometry">
                        <mxPoint x="344.79999999999995" y="152.72000000000003" as="sourcePoint"/>
                        <mxPoint x="299.35000000000014" y="132.48000000000002" as="targetPoint"/>
                    </mxGeometry>
                </mxCell>
                <mxCell id="RDQMdI9TkchYn4Y29qCX-37" value="响应" style="edgeLabel;html=1;align=center;verticalAlign=middle;resizable=0;points=[];" parent="RDQMdI9TkchYn4Y29qCX-36" vertex="1" connectable="0">
                    <mxGeometry x="0.3241" y="2" relative="1" as="geometry">
                        <mxPoint as="offset"/>
                    </mxGeometry>
                </mxCell>
                <mxCell id="RDQMdI9TkchYn4Y29qCX-38" value="" style="endArrow=classic;html=1;rounded=0;dashed=1;exitX=0.454;exitY=-0.024;exitDx=0;exitDy=0;exitPerimeter=0;entryX=0.405;entryY=1.001;entryDx=0;entryDy=0;entryPerimeter=0;" parent="v5pVFf8WuT5oX3Xv5NZD-1" source="RDQMdI9TkchYn4Y29qCX-3" target="RDQMdI9TkchYn4Y29qCX-46" edge="1">
                    <mxGeometry width="50" height="50" relative="1" as="geometry">
                        <mxPoint x="375.9000000000001" y="286.79999999999984" as="sourcePoint"/>
                        <mxPoint x="429.1299999999999" y="119.68000000000006" as="targetPoint"/>
                    </mxGeometry>
                </mxCell>
                <mxCell id="RDQMdI9TkchYn4Y29qCX-39" value="响应" style="edgeLabel;html=1;align=center;verticalAlign=middle;resizable=0;points=[];" parent="RDQMdI9TkchYn4Y29qCX-38" vertex="1" connectable="0">
                    <mxGeometry x="0.3241" y="2" relative="1" as="geometry">
                        <mxPoint as="offset"/>
                    </mxGeometry>
                </mxCell>
                <mxCell id="RDQMdI9TkchYn4Y29qCX-40" value="" style="endArrow=classic;html=1;rounded=0;dashed=1;exitX=0.808;exitY=-0.005;exitDx=0;exitDy=0;exitPerimeter=0;entryX=0.5;entryY=1;entryDx=0;entryDy=0;" parent="v5pVFf8WuT5oX3Xv5NZD-1" source="RDQMdI9TkchYn4Y29qCX-3" target="RDQMdI9TkchYn4Y29qCX-47" edge="1">
                    <mxGeometry width="50" height="50" relative="1" as="geometry">
                        <mxPoint x="385.9000000000001" y="296.79999999999984" as="sourcePoint"/>
                        <mxPoint x="589.8159999999998" y="122.08000000000004" as="targetPoint"/>
                    </mxGeometry>
                </mxCell>
                <mxCell id="RDQMdI9TkchYn4Y29qCX-41" value="响应" style="edgeLabel;html=1;align=center;verticalAlign=middle;resizable=0;points=[];" parent="RDQMdI9TkchYn4Y29qCX-40" vertex="1" connectable="0">
                    <mxGeometry x="0.3241" y="2" relative="1" as="geometry">
                        <mxPoint as="offset"/>
                    </mxGeometry>
                </mxCell>
                <mxCell id="RDQMdI9TkchYn4Y29qCX-45" value="iOS" style="whiteSpace=wrap;html=1;rounded=0;glass=0;sketch=0;strokeColor=default;fillColor=none;" parent="v5pVFf8WuT5oX3Xv5NZD-1" vertex="1">
                    <mxGeometry x="280" y="80" width="70" height="40" as="geometry"/>
                </mxCell>
                <mxCell id="RDQMdI9TkchYn4Y29qCX-46" value="Android" style="whiteSpace=wrap;html=1;rounded=0;glass=0;sketch=0;strokeColor=default;fillColor=none;" parent="v5pVFf8WuT5oX3Xv5NZD-1" vertex="1">
                    <mxGeometry x="395" y="80" width="70" height="40" as="geometry"/>
                </mxCell>
                <mxCell id="RDQMdI9TkchYn4Y29qCX-47" value="Web&amp;nbsp;Browser" style="whiteSpace=wrap;html=1;rounded=0;glass=0;sketch=0;strokeColor=default;fillColor=none;" parent="v5pVFf8WuT5oX3Xv5NZD-1" vertex="1">
                    <mxGeometry x="510" y="80" width="90" height="40" as="geometry"/>
                </mxCell>
                <mxCell id="RDQMdI9TkchYn4Y29qCX-48" value="服务器" style="rounded=0;whiteSpace=wrap;html=1;glass=0;sketch=0;strokeColor=default;fillColor=none;" parent="v5pVFf8WuT5oX3Xv5NZD-1" vertex="1">
                    <mxGeometry x="345" y="280" width="195" height="50" as="geometry"/>
                </mxCell>
                <mxCell id="RDQMdI9TkchYn4Y29qCX-49" value="数据库" style="shape=cylinder3;whiteSpace=wrap;html=1;boundedLbl=1;backgroundOutline=1;size=15;rounded=0;glass=0;sketch=0;strokeColor=default;fillColor=none;" parent="v5pVFf8WuT5oX3Xv5NZD-1" vertex="1">
                    <mxGeometry x="374" y="360" width="136" height="60" as="geometry"/>
                </mxCell>
                <mxCell id="RDQMdI9TkchYn4Y29qCX-50" value="" style="endArrow=classic;startArrow=classic;html=1;rounded=0;dashed=1;entryX=0.488;entryY=0.985;entryDx=0;entryDy=0;exitX=0.488;exitY=-0.018;exitDx=0;exitDy=0;exitPerimeter=0;entryPerimeter=0;" parent="v5pVFf8WuT5oX3Xv5NZD-1" source="RDQMdI9TkchYn4Y29qCX-49" target="RDQMdI9TkchYn4Y29qCX-48" edge="1">
                    <mxGeometry width="50" height="50" relative="1" as="geometry">
                        <mxPoint x="405" y="380" as="sourcePoint"/>
                        <mxPoint x="455" y="330" as="targetPoint"/>
                    </mxGeometry>
                </mxCell>
                <mxCell id="RDQMdI9TkchYn4Y29qCX-52" value="" style="rounded=0;whiteSpace=wrap;html=1;glass=0;sketch=0;strokeColor=default;fillColor=none;" parent="v5pVFf8WuT5oX3Xv5NZD-1" vertex="1">
                    <mxGeometry x="486" y="533" width="160" height="250" as="geometry"/>
                </mxCell>
                <mxCell id="RDQMdI9TkchYn4Y29qCX-53" value="" style="rounded=0;whiteSpace=wrap;html=1;glass=0;sketch=0;strokeColor=default;fillColor=none;" parent="v5pVFf8WuT5oX3Xv5NZD-1" vertex="1">
                    <mxGeometry x="158" y="622" width="240" height="160" as="geometry"/>
                </mxCell>
                <mxCell id="RDQMdI9TkchYn4Y29qCX-55" value="" style="shape=singleArrow;whiteSpace=wrap;html=1;arrowWidth=0.4;arrowSize=0.4;rounded=0;glass=0;sketch=0;strokeColor=default;fillColor=none;" parent="v5pVFf8WuT5oX3Xv5NZD-1" vertex="1">
                    <mxGeometry x="405.5" y="682" width="70" height="40" as="geometry"/>
                </mxCell>
                <mxCell id="RDQMdI9TkchYn4Y29qCX-56" value="mybatis-plus-boot-starter" style="whiteSpace=wrap;html=1;rounded=0;glass=0;sketch=0;strokeColor=default;fillColor=none;" parent="v5pVFf8WuT5oX3Xv5NZD-1" vertex="1">
                    <mxGeometry x="171" y="632" width="207" height="40" as="geometry"/>
                </mxCell>
                <mxCell id="RDQMdI9TkchYn4Y29qCX-57" value="annotation" style="whiteSpace=wrap;html=1;rounded=0;glass=0;sketch=0;strokeColor=default;fillColor=none;" parent="v5pVFf8WuT5oX3Xv5NZD-1" vertex="1">
                    <mxGeometry x="171" y="682" width="80" height="40" as="geometry"/>
                </mxCell>
                <mxCell id="RDQMdI9TkchYn4Y29qCX-58" value="extension" style="whiteSpace=wrap;html=1;rounded=0;glass=0;sketch=0;strokeColor=default;fillColor=none;" parent="v5pVFf8WuT5oX3Xv5NZD-1" vertex="1">
                    <mxGeometry x="298" y="682" width="80" height="40" as="geometry"/>
                </mxCell>
                <mxCell id="RDQMdI9TkchYn4Y29qCX-59" value="core" style="whiteSpace=wrap;html=1;rounded=0;glass=0;sketch=0;strokeColor=default;fillColor=none;" parent="v5pVFf8WuT5oX3Xv5NZD-1" vertex="1">
                    <mxGeometry x="171" y="732" width="80" height="40" as="geometry"/>
                </mxCell>
                <mxCell id="RDQMdI9TkchYn4Y29qCX-60" value="generator" style="whiteSpace=wrap;html=1;rounded=0;glass=0;sketch=0;strokeColor=default;fillColor=none;" parent="v5pVFf8WuT5oX3Xv5NZD-1" vertex="1">
                    <mxGeometry x="298" y="732" width="80" height="40" as="geometry"/>
                </mxCell>
                <mxCell id="RDQMdI9TkchYn4Y29qCX-61" value="Scan Entity" style="whiteSpace=wrap;html=1;rounded=0;glass=0;sketch=0;strokeColor=default;fillColor=none;" parent="v5pVFf8WuT5oX3Xv5NZD-1" vertex="1">
                    <mxGeometry x="506" y="543" width="120" height="45" as="geometry"/>
                </mxCell>
                <mxCell id="RDQMdI9TkchYn4Y29qCX-66" style="edgeStyle=none;rounded=0;orthogonalLoop=1;jettySize=auto;html=1;exitX=0.5;exitY=0;exitDx=0;exitDy=0;entryX=0.5;entryY=1;entryDx=0;entryDy=0;startArrow=classic;startFill=1;endArrow=none;endFill=0;" parent="v5pVFf8WuT5oX3Xv5NZD-1" source="RDQMdI9TkchYn4Y29qCX-62" target="RDQMdI9TkchYn4Y29qCX-61" edge="1">
                    <mxGeometry relative="1" as="geometry"/>
                </mxCell>
                <mxCell id="RDQMdI9TkchYn4Y29qCX-68" value="Reflection extration" style="edgeLabel;html=1;align=center;verticalAlign=middle;resizable=0;points=[];" parent="RDQMdI9TkchYn4Y29qCX-66" vertex="1" connectable="0">
                    <mxGeometry x="0.4016" relative="1" as="geometry">
                        <mxPoint as="offset"/>
                    </mxGeometry>
                </mxCell>
                <mxCell id="RDQMdI9TkchYn4Y29qCX-62" value="Analysis Table &lt;br&gt;Name Column" style="whiteSpace=wrap;html=1;rounded=0;glass=0;sketch=0;strokeColor=default;fillColor=none;" parent="v5pVFf8WuT5oX3Xv5NZD-1" vertex="1">
                    <mxGeometry x="506" y="628" width="120" height="45" as="geometry"/>
                </mxCell>
                <mxCell id="RDQMdI9TkchYn4Y29qCX-67" style="edgeStyle=none;rounded=0;orthogonalLoop=1;jettySize=auto;html=1;exitX=0.5;exitY=0;exitDx=0;exitDy=0;entryX=0.5;entryY=1;entryDx=0;entryDy=0;startArrow=classic;startFill=1;endArrow=none;endFill=0;" parent="v5pVFf8WuT5oX3Xv5NZD-1" source="RDQMdI9TkchYn4Y29qCX-63" target="RDQMdI9TkchYn4Y29qCX-62" edge="1">
                    <mxGeometry relative="1" as="geometry"/>
                </mxCell>
                <mxCell id="RDQMdI9TkchYn4Y29qCX-69" value="SQL&amp;nbsp; Insert/Update/&lt;br&gt;&amp;nbsp; &amp;nbsp; &amp;nbsp; &amp;nbsp; Delete/Select" style="edgeLabel;html=1;align=center;verticalAlign=middle;resizable=0;points=[];" parent="RDQMdI9TkchYn4Y29qCX-67" vertex="1" connectable="0">
                    <mxGeometry x="0.3347" y="3" relative="1" as="geometry">
                        <mxPoint y="10" as="offset"/>
                    </mxGeometry>
                </mxCell>
                <mxCell id="RDQMdI9TkchYn4Y29qCX-63" value="Injection MyBatis&lt;br&gt;Container" style="whiteSpace=wrap;html=1;rounded=0;glass=0;sketch=0;strokeColor=default;fillColor=none;" parent="v5pVFf8WuT5oX3Xv5NZD-1" vertex="1">
                    <mxGeometry x="506" y="728" width="120" height="45" as="geometry"/>
                </mxCell>
                <mxCell id="RDQMdI9TkchYn4Y29qCX-73" style="edgeStyle=none;rounded=0;orthogonalLoop=1;jettySize=auto;html=1;exitX=0;exitY=0.5;exitDx=0;exitDy=0;startArrow=classic;startFill=1;endArrow=none;endFill=0;" parent="v5pVFf8WuT5oX3Xv5NZD-1" source="RDQMdI9TkchYn4Y29qCX-70" edge="1">
                    <mxGeometry relative="1" as="geometry">
                        <mxPoint x="144" y="985" as="targetPoint"/>
                    </mxGeometry>
                </mxCell>
                <mxCell id="RDQMdI9TkchYn4Y29qCX-74" value="用户交互" style="edgeLabel;html=1;align=center;verticalAlign=middle;resizable=0;points=[];" parent="RDQMdI9TkchYn4Y29qCX-73" vertex="1" connectable="0">
                    <mxGeometry x="0.5511" relative="1" as="geometry">
                        <mxPoint x="20" as="offset"/>
                    </mxGeometry>
                </mxCell>
                <mxCell id="RDQMdI9TkchYn4Y29qCX-75" style="rounded=0;orthogonalLoop=1;jettySize=auto;html=1;exitX=1;exitY=0.5;exitDx=0;exitDy=0;entryX=0;entryY=0.5;entryDx=0;entryDy=0;startArrow=classic;startFill=1;endArrow=classic;endFill=1;" parent="v5pVFf8WuT5oX3Xv5NZD-1" source="RDQMdI9TkchYn4Y29qCX-70" target="RDQMdI9TkchYn4Y29qCX-71" edge="1">
                    <mxGeometry relative="1" as="geometry"/>
                </mxCell>
                <mxCell id="RDQMdI9TkchYn4Y29qCX-76" value="双向绑定" style="edgeLabel;html=1;align=center;verticalAlign=middle;resizable=0;points=[];" parent="RDQMdI9TkchYn4Y29qCX-75" vertex="1" connectable="0">
                    <mxGeometry x="-0.4005" relative="1" as="geometry">
                        <mxPoint x="16" as="offset"/>
                    </mxGeometry>
                </mxCell>
                <mxCell id="RDQMdI9TkchYn4Y29qCX-70" value="View" style="whiteSpace=wrap;html=1;rounded=0;glass=0;sketch=0;strokeColor=default;fillColor=none;" parent="v5pVFf8WuT5oX3Xv5NZD-1" vertex="1">
                    <mxGeometry x="234" y="965" width="80" height="40" as="geometry"/>
                </mxCell>
                <mxCell id="RDQMdI9TkchYn4Y29qCX-77" style="edgeStyle=none;rounded=0;orthogonalLoop=1;jettySize=auto;html=1;exitX=1;exitY=0.25;exitDx=0;exitDy=0;entryX=0;entryY=0.25;entryDx=0;entryDy=0;startArrow=none;startFill=0;endArrow=classic;endFill=1;" parent="v5pVFf8WuT5oX3Xv5NZD-1" source="RDQMdI9TkchYn4Y29qCX-71" target="RDQMdI9TkchYn4Y29qCX-72" edge="1">
                    <mxGeometry relative="1" as="geometry"/>
                </mxCell>
                <mxCell id="RDQMdI9TkchYn4Y29qCX-79" value="操作" style="edgeLabel;html=1;align=center;verticalAlign=middle;resizable=0;points=[];" parent="RDQMdI9TkchYn4Y29qCX-77" vertex="1" connectable="0">
                    <mxGeometry x="-0.4694" y="2" relative="1" as="geometry">
                        <mxPoint as="offset"/>
                    </mxGeometry>
                </mxCell>
                <mxCell id="RDQMdI9TkchYn4Y29qCX-71" value="ViewModel" style="whiteSpace=wrap;html=1;rounded=0;glass=0;sketch=0;strokeColor=default;fillColor=none;" parent="v5pVFf8WuT5oX3Xv5NZD-1" vertex="1">
                    <mxGeometry x="394" y="965" width="80" height="40" as="geometry"/>
                </mxCell>
                <mxCell id="RDQMdI9TkchYn4Y29qCX-78" style="edgeStyle=none;rounded=0;orthogonalLoop=1;jettySize=auto;html=1;exitX=0;exitY=0.75;exitDx=0;exitDy=0;entryX=1;entryY=0.75;entryDx=0;entryDy=0;startArrow=none;startFill=0;endArrow=classic;endFill=1;dashed=1;" parent="v5pVFf8WuT5oX3Xv5NZD-1" source="RDQMdI9TkchYn4Y29qCX-72" target="RDQMdI9TkchYn4Y29qCX-71" edge="1">
                    <mxGeometry relative="1" as="geometry"/>
                </mxCell>
                <mxCell id="RDQMdI9TkchYn4Y29qCX-80" value="事件" style="edgeLabel;html=1;align=center;verticalAlign=middle;resizable=0;points=[];" parent="RDQMdI9TkchYn4Y29qCX-78" vertex="1" connectable="0">
                    <mxGeometry x="0.2281" relative="1" as="geometry">
                        <mxPoint x="23" as="offset"/>
                    </mxGeometry>
                </mxCell>
                <mxCell id="RDQMdI9TkchYn4Y29qCX-72" value="Model" style="whiteSpace=wrap;html=1;rounded=0;glass=0;sketch=0;strokeColor=default;fillColor=none;" parent="v5pVFf8WuT5oX3Xv5NZD-1" vertex="1">
                    <mxGeometry x="554" y="965" width="80" height="40" as="geometry"/>
                </mxCell>
            </root>
        </mxGraphModel>
    </diagram>
    <diagram id="PMkfzUxXAcH_57Rto5Lv" name="3.系统需求分析">
        <mxGraphModel dx="944" dy="648" grid="0" gridSize="10" guides="1" tooltips="1" connect="1" arrows="1" fold="1" page="1" pageScale="1" pageWidth="827" pageHeight="1169" math="0" shadow="0">
            <root>
                <mxCell id="fPTyw4SbEgRYlCSAsRBV-0"/>
                <mxCell id="fPTyw4SbEgRYlCSAsRBV-1" parent="fPTyw4SbEgRYlCSAsRBV-0"/>
                <mxCell id="9jONjeqD923eWWxhYU1Z-11" style="edgeStyle=none;rounded=0;orthogonalLoop=1;jettySize=auto;html=1;exitX=0.5;exitY=0.5;exitDx=0;exitDy=0;exitPerimeter=0;entryX=0;entryY=0.5;entryDx=0;entryDy=0;startArrow=none;startFill=0;endArrow=classic;endFill=1;" parent="fPTyw4SbEgRYlCSAsRBV-1" source="9jONjeqD923eWWxhYU1Z-0" target="9jONjeqD923eWWxhYU1Z-5" edge="1">
                    <mxGeometry relative="1" as="geometry"/>
                </mxCell>
                <mxCell id="9jONjeqD923eWWxhYU1Z-12" style="edgeStyle=none;rounded=0;orthogonalLoop=1;jettySize=auto;html=1;exitX=0.5;exitY=0.5;exitDx=0;exitDy=0;exitPerimeter=0;entryX=0;entryY=0.5;entryDx=0;entryDy=0;startArrow=none;startFill=0;endArrow=classic;endFill=1;" parent="fPTyw4SbEgRYlCSAsRBV-1" source="9jONjeqD923eWWxhYU1Z-0" target="9jONjeqD923eWWxhYU1Z-6" edge="1">
                    <mxGeometry relative="1" as="geometry"/>
                </mxCell>
                <mxCell id="9jONjeqD923eWWxhYU1Z-13" style="edgeStyle=none;rounded=0;orthogonalLoop=1;jettySize=auto;html=1;exitX=0.5;exitY=0.5;exitDx=0;exitDy=0;exitPerimeter=0;entryX=0;entryY=0.5;entryDx=0;entryDy=0;startArrow=none;startFill=0;endArrow=classic;endFill=1;" parent="fPTyw4SbEgRYlCSAsRBV-1" source="9jONjeqD923eWWxhYU1Z-0" target="9jONjeqD923eWWxhYU1Z-7" edge="1">
                    <mxGeometry relative="1" as="geometry"/>
                </mxCell>
                <mxCell id="9jONjeqD923eWWxhYU1Z-14" style="edgeStyle=none;rounded=0;orthogonalLoop=1;jettySize=auto;html=1;exitX=0.5;exitY=0.5;exitDx=0;exitDy=0;exitPerimeter=0;entryX=0;entryY=0.5;entryDx=0;entryDy=0;startArrow=none;startFill=0;endArrow=classic;endFill=1;" parent="fPTyw4SbEgRYlCSAsRBV-1" source="9jONjeqD923eWWxhYU1Z-0" target="9jONjeqD923eWWxhYU1Z-8" edge="1">
                    <mxGeometry relative="1" as="geometry"/>
                </mxCell>
                <mxCell id="9jONjeqD923eWWxhYU1Z-15" style="edgeStyle=none;rounded=0;orthogonalLoop=1;jettySize=auto;html=1;exitX=0.5;exitY=0.5;exitDx=0;exitDy=0;exitPerimeter=0;entryX=0;entryY=0.5;entryDx=0;entryDy=0;startArrow=none;startFill=0;endArrow=classic;endFill=1;" parent="fPTyw4SbEgRYlCSAsRBV-1" source="9jONjeqD923eWWxhYU1Z-0" target="9jONjeqD923eWWxhYU1Z-10" edge="1">
                    <mxGeometry relative="1" as="geometry"/>
                </mxCell>
                <mxCell id="9jONjeqD923eWWxhYU1Z-0" value="用户" style="shape=umlActor;verticalLabelPosition=bottom;verticalAlign=top;html=1;outlineConnect=0;rounded=0;glass=0;sketch=0;strokeColor=default;fillColor=none;" parent="fPTyw4SbEgRYlCSAsRBV-1" vertex="1">
                    <mxGeometry x="120" y="210" width="30" height="60" as="geometry"/>
                </mxCell>
                <mxCell id="9jONjeqD923eWWxhYU1Z-5" value="数据大屏" style="ellipse;whiteSpace=wrap;html=1;rounded=0;glass=0;sketch=0;strokeColor=default;fillColor=none;" parent="fPTyw4SbEgRYlCSAsRBV-1" vertex="1">
                    <mxGeometry x="280" y="80" width="120" height="40" as="geometry"/>
                </mxCell>
                <mxCell id="9jONjeqD923eWWxhYU1Z-24" style="edgeStyle=none;rounded=0;orthogonalLoop=1;jettySize=auto;html=1;exitX=1;exitY=0.5;exitDx=0;exitDy=0;entryX=0;entryY=0.5;entryDx=0;entryDy=0;startArrow=none;startFill=0;endArrow=classic;endFill=1;dashed=1;" parent="fPTyw4SbEgRYlCSAsRBV-1" source="9jONjeqD923eWWxhYU1Z-6" target="9jONjeqD923eWWxhYU1Z-16" edge="1">
                    <mxGeometry relative="1" as="geometry"/>
                </mxCell>
                <mxCell id="9jONjeqD923eWWxhYU1Z-25" value="&amp;lt;&amp;lt;包含&amp;gt;&amp;gt;" style="edgeLabel;html=1;align=center;verticalAlign=middle;resizable=0;points=[];" parent="9jONjeqD923eWWxhYU1Z-24" vertex="1" connectable="0">
                    <mxGeometry x="-0.2632" relative="1" as="geometry">
                        <mxPoint x="37" y="-32" as="offset"/>
                    </mxGeometry>
                </mxCell>
                <mxCell id="9jONjeqD923eWWxhYU1Z-26" style="edgeStyle=none;rounded=0;orthogonalLoop=1;jettySize=auto;html=1;exitX=1;exitY=0.5;exitDx=0;exitDy=0;entryX=0;entryY=0.5;entryDx=0;entryDy=0;dashed=1;startArrow=none;startFill=0;endArrow=classic;endFill=1;" parent="fPTyw4SbEgRYlCSAsRBV-1" source="9jONjeqD923eWWxhYU1Z-6" target="9jONjeqD923eWWxhYU1Z-17" edge="1">
                    <mxGeometry relative="1" as="geometry"/>
                </mxCell>
                <mxCell id="9jONjeqD923eWWxhYU1Z-30" value="&amp;lt;&amp;lt;包含&amp;gt;&amp;gt;" style="edgeLabel;html=1;align=center;verticalAlign=middle;resizable=0;points=[];" parent="9jONjeqD923eWWxhYU1Z-26" vertex="1" connectable="0">
                    <mxGeometry x="0.5143" y="1" relative="1" as="geometry">
                        <mxPoint as="offset"/>
                    </mxGeometry>
                </mxCell>
                <mxCell id="9jONjeqD923eWWxhYU1Z-27" style="edgeStyle=none;rounded=0;orthogonalLoop=1;jettySize=auto;html=1;exitX=1;exitY=0.5;exitDx=0;exitDy=0;entryX=0;entryY=0.5;entryDx=0;entryDy=0;dashed=1;startArrow=none;startFill=0;endArrow=classic;endFill=1;" parent="fPTyw4SbEgRYlCSAsRBV-1" source="9jONjeqD923eWWxhYU1Z-6" target="9jONjeqD923eWWxhYU1Z-18" edge="1">
                    <mxGeometry relative="1" as="geometry"/>
                </mxCell>
                <mxCell id="9jONjeqD923eWWxhYU1Z-31" value="&amp;lt;&amp;lt;包含&amp;gt;&amp;gt;" style="edgeLabel;html=1;align=center;verticalAlign=middle;resizable=0;points=[];" parent="9jONjeqD923eWWxhYU1Z-27" vertex="1" connectable="0">
                    <mxGeometry x="0.2339" y="2" relative="1" as="geometry">
                        <mxPoint as="offset"/>
                    </mxGeometry>
                </mxCell>
                <mxCell id="9jONjeqD923eWWxhYU1Z-28" style="edgeStyle=none;rounded=0;orthogonalLoop=1;jettySize=auto;html=1;exitX=1;exitY=0.5;exitDx=0;exitDy=0;entryX=0;entryY=0.5;entryDx=0;entryDy=0;dashed=1;startArrow=none;startFill=0;endArrow=classic;endFill=1;" parent="fPTyw4SbEgRYlCSAsRBV-1" source="9jONjeqD923eWWxhYU1Z-6" target="9jONjeqD923eWWxhYU1Z-19" edge="1">
                    <mxGeometry relative="1" as="geometry"/>
                </mxCell>
                <mxCell id="9jONjeqD923eWWxhYU1Z-32" value="&amp;lt;&amp;lt;包含&amp;gt;&amp;gt;" style="edgeLabel;html=1;align=center;verticalAlign=middle;resizable=0;points=[];" parent="9jONjeqD923eWWxhYU1Z-28" vertex="1" connectable="0">
                    <mxGeometry x="0.2496" relative="1" as="geometry">
                        <mxPoint as="offset"/>
                    </mxGeometry>
                </mxCell>
                <mxCell id="9jONjeqD923eWWxhYU1Z-6" value="数据管理" style="ellipse;whiteSpace=wrap;html=1;rounded=0;glass=0;sketch=0;strokeColor=default;fillColor=none;" parent="fPTyw4SbEgRYlCSAsRBV-1" vertex="1">
                    <mxGeometry x="280" y="165" width="120" height="40" as="geometry"/>
                </mxCell>
                <mxCell id="9jONjeqD923eWWxhYU1Z-33" style="edgeStyle=none;rounded=0;orthogonalLoop=1;jettySize=auto;html=1;exitX=1;exitY=0.5;exitDx=0;exitDy=0;entryX=-0.004;entryY=0.647;entryDx=0;entryDy=0;entryPerimeter=0;dashed=1;startArrow=none;startFill=0;endArrow=classic;endFill=1;" parent="fPTyw4SbEgRYlCSAsRBV-1" source="9jONjeqD923eWWxhYU1Z-7" target="9jONjeqD923eWWxhYU1Z-20" edge="1">
                    <mxGeometry relative="1" as="geometry"/>
                </mxCell>
                <mxCell id="9jONjeqD923eWWxhYU1Z-37" value="&amp;lt;&amp;lt;包含&amp;gt;&amp;gt;" style="edgeLabel;html=1;align=center;verticalAlign=middle;resizable=0;points=[];" parent="9jONjeqD923eWWxhYU1Z-33" vertex="1" connectable="0">
                    <mxGeometry x="0.4015" y="1" relative="1" as="geometry">
                        <mxPoint x="-16" y="8" as="offset"/>
                    </mxGeometry>
                </mxCell>
                <mxCell id="9jONjeqD923eWWxhYU1Z-34" style="edgeStyle=none;rounded=0;orthogonalLoop=1;jettySize=auto;html=1;exitX=1;exitY=0.5;exitDx=0;exitDy=0;entryX=0;entryY=0.5;entryDx=0;entryDy=0;dashed=1;startArrow=none;startFill=0;endArrow=classic;endFill=1;" parent="fPTyw4SbEgRYlCSAsRBV-1" source="9jONjeqD923eWWxhYU1Z-7" target="9jONjeqD923eWWxhYU1Z-21" edge="1">
                    <mxGeometry relative="1" as="geometry"/>
                </mxCell>
                <mxCell id="9jONjeqD923eWWxhYU1Z-38" value="&amp;lt;&amp;lt;包含&amp;gt;&amp;gt;" style="edgeLabel;html=1;align=center;verticalAlign=middle;resizable=0;points=[];" parent="9jONjeqD923eWWxhYU1Z-34" vertex="1" connectable="0">
                    <mxGeometry x="-0.3139" y="1" relative="1" as="geometry">
                        <mxPoint as="offset"/>
                    </mxGeometry>
                </mxCell>
                <mxCell id="9jONjeqD923eWWxhYU1Z-35" style="edgeStyle=none;rounded=0;orthogonalLoop=1;jettySize=auto;html=1;exitX=1;exitY=0.5;exitDx=0;exitDy=0;entryX=0;entryY=0.5;entryDx=0;entryDy=0;dashed=1;startArrow=none;startFill=0;endArrow=classic;endFill=1;" parent="fPTyw4SbEgRYlCSAsRBV-1" source="9jONjeqD923eWWxhYU1Z-7" target="9jONjeqD923eWWxhYU1Z-22" edge="1">
                    <mxGeometry relative="1" as="geometry"/>
                </mxCell>
                <mxCell id="9jONjeqD923eWWxhYU1Z-39" value="&amp;lt;&amp;lt;包含&amp;gt;&amp;gt;" style="edgeLabel;html=1;align=center;verticalAlign=middle;resizable=0;points=[];" parent="9jONjeqD923eWWxhYU1Z-35" vertex="1" connectable="0">
                    <mxGeometry x="0.2172" y="2" relative="1" as="geometry">
                        <mxPoint as="offset"/>
                    </mxGeometry>
                </mxCell>
                <mxCell id="9jONjeqD923eWWxhYU1Z-36" style="edgeStyle=none;rounded=0;orthogonalLoop=1;jettySize=auto;html=1;exitX=1;exitY=0.5;exitDx=0;exitDy=0;entryX=0;entryY=0.5;entryDx=0;entryDy=0;dashed=1;startArrow=none;startFill=0;endArrow=classic;endFill=1;" parent="fPTyw4SbEgRYlCSAsRBV-1" source="9jONjeqD923eWWxhYU1Z-7" target="9jONjeqD923eWWxhYU1Z-23" edge="1">
                    <mxGeometry relative="1" as="geometry"/>
                </mxCell>
                <mxCell id="9jONjeqD923eWWxhYU1Z-40" value="&amp;lt;&amp;lt;包含&amp;gt;&amp;gt;" style="edgeLabel;html=1;align=center;verticalAlign=middle;resizable=0;points=[];" parent="9jONjeqD923eWWxhYU1Z-36" vertex="1" connectable="0">
                    <mxGeometry x="0.1943" y="-3" relative="1" as="geometry">
                        <mxPoint as="offset"/>
                    </mxGeometry>
                </mxCell>
                <mxCell id="9jONjeqD923eWWxhYU1Z-7" value="数据分析和可视化" style="ellipse;whiteSpace=wrap;html=1;rounded=0;glass=0;sketch=0;strokeColor=default;fillColor=none;" parent="fPTyw4SbEgRYlCSAsRBV-1" vertex="1">
                    <mxGeometry x="280" y="260" width="120" height="40" as="geometry"/>
                </mxCell>
                <mxCell id="9jONjeqD923eWWxhYU1Z-8" value="用户管理" style="ellipse;whiteSpace=wrap;html=1;rounded=0;glass=0;sketch=0;strokeColor=default;fillColor=none;" parent="fPTyw4SbEgRYlCSAsRBV-1" vertex="1">
                    <mxGeometry x="280" y="340" width="120" height="40" as="geometry"/>
                </mxCell>
                <mxCell id="9jONjeqD923eWWxhYU1Z-43" style="edgeStyle=none;rounded=0;orthogonalLoop=1;jettySize=auto;html=1;exitX=1;exitY=0.5;exitDx=0;exitDy=0;entryX=0;entryY=0.5;entryDx=0;entryDy=0;dashed=1;startArrow=none;startFill=0;endArrow=classic;endFill=1;" parent="fPTyw4SbEgRYlCSAsRBV-1" source="9jONjeqD923eWWxhYU1Z-10" target="9jONjeqD923eWWxhYU1Z-41" edge="1">
                    <mxGeometry relative="1" as="geometry"/>
                </mxCell>
                <mxCell id="9jONjeqD923eWWxhYU1Z-45" value="&amp;lt;&amp;lt;包含&amp;gt;&amp;gt;" style="edgeLabel;html=1;align=center;verticalAlign=middle;resizable=0;points=[];" parent="9jONjeqD923eWWxhYU1Z-43" vertex="1" connectable="0">
                    <mxGeometry x="0.1523" y="-1" relative="1" as="geometry">
                        <mxPoint as="offset"/>
                    </mxGeometry>
                </mxCell>
                <mxCell id="9jONjeqD923eWWxhYU1Z-44" style="edgeStyle=none;rounded=0;orthogonalLoop=1;jettySize=auto;html=1;exitX=1;exitY=0.5;exitDx=0;exitDy=0;entryX=0;entryY=0.5;entryDx=0;entryDy=0;dashed=1;startArrow=none;startFill=0;endArrow=classic;endFill=1;" parent="fPTyw4SbEgRYlCSAsRBV-1" source="9jONjeqD923eWWxhYU1Z-10" target="9jONjeqD923eWWxhYU1Z-42" edge="1">
                    <mxGeometry relative="1" as="geometry"/>
                </mxCell>
                <mxCell id="9jONjeqD923eWWxhYU1Z-46" value="&amp;lt;&amp;lt;包含&amp;gt;&amp;gt;" style="edgeLabel;html=1;align=center;verticalAlign=middle;resizable=0;points=[];" parent="9jONjeqD923eWWxhYU1Z-44" vertex="1" connectable="0">
                    <mxGeometry x="-0.5182" y="1" relative="1" as="geometry">
                        <mxPoint as="offset"/>
                    </mxGeometry>
                </mxCell>
                <mxCell id="9jONjeqD923eWWxhYU1Z-10" value="数据备份和恢复" style="ellipse;whiteSpace=wrap;html=1;rounded=0;glass=0;sketch=0;strokeColor=default;fillColor=none;" parent="fPTyw4SbEgRYlCSAsRBV-1" vertex="1">
                    <mxGeometry x="280" y="440" width="120" height="40" as="geometry"/>
                </mxCell>
                <mxCell id="9jONjeqD923eWWxhYU1Z-16" value="笔试成绩管理" style="ellipse;whiteSpace=wrap;html=1;rounded=0;glass=0;sketch=0;strokeColor=default;fillColor=none;" parent="fPTyw4SbEgRYlCSAsRBV-1" vertex="1">
                    <mxGeometry x="570" y="40" width="120" height="30" as="geometry"/>
                </mxCell>
                <mxCell id="9jONjeqD923eWWxhYU1Z-17" value="面试成绩管理" style="ellipse;whiteSpace=wrap;html=1;rounded=0;glass=0;sketch=0;strokeColor=default;fillColor=none;" parent="fPTyw4SbEgRYlCSAsRBV-1" vertex="1">
                    <mxGeometry x="570" y="80" width="120" height="30" as="geometry"/>
                </mxCell>
                <mxCell id="9jONjeqD923eWWxhYU1Z-18" value="证书数据管理" style="ellipse;whiteSpace=wrap;html=1;rounded=0;glass=0;sketch=0;strokeColor=default;fillColor=none;" parent="fPTyw4SbEgRYlCSAsRBV-1" vertex="1">
                    <mxGeometry x="570" y="125" width="120" height="30" as="geometry"/>
                </mxCell>
                <mxCell id="9jONjeqD923eWWxhYU1Z-19" value="认定数据管理" style="ellipse;whiteSpace=wrap;html=1;rounded=0;glass=0;sketch=0;strokeColor=default;fillColor=none;" parent="fPTyw4SbEgRYlCSAsRBV-1" vertex="1">
                    <mxGeometry x="570" y="170" width="120" height="30" as="geometry"/>
                </mxCell>
                <mxCell id="9jONjeqD923eWWxhYU1Z-20" value="笔试成绩分析和可视化" style="ellipse;whiteSpace=wrap;html=1;rounded=0;glass=0;sketch=0;strokeColor=default;fillColor=none;" parent="fPTyw4SbEgRYlCSAsRBV-1" vertex="1">
                    <mxGeometry x="530" y="230" width="160" height="40" as="geometry"/>
                </mxCell>
                <mxCell id="9jONjeqD923eWWxhYU1Z-21" value="面试成绩分析和可视化" style="ellipse;whiteSpace=wrap;html=1;rounded=0;glass=0;sketch=0;strokeColor=default;fillColor=none;" parent="fPTyw4SbEgRYlCSAsRBV-1" vertex="1">
                    <mxGeometry x="530" y="280" width="160" height="40" as="geometry"/>
                </mxCell>
                <mxCell id="9jONjeqD923eWWxhYU1Z-22" value="证书数据分析和可视化" style="ellipse;whiteSpace=wrap;html=1;rounded=0;glass=0;sketch=0;strokeColor=default;fillColor=none;" parent="fPTyw4SbEgRYlCSAsRBV-1" vertex="1">
                    <mxGeometry x="530" y="330" width="160" height="40" as="geometry"/>
                </mxCell>
                <mxCell id="9jONjeqD923eWWxhYU1Z-23" value="认定数据分析和可视化" style="ellipse;whiteSpace=wrap;html=1;rounded=0;glass=0;sketch=0;strokeColor=default;fillColor=none;" parent="fPTyw4SbEgRYlCSAsRBV-1" vertex="1">
                    <mxGeometry x="530" y="380" width="160" height="40" as="geometry"/>
                </mxCell>
                <mxCell id="9jONjeqD923eWWxhYU1Z-41" value="数据备份" style="ellipse;whiteSpace=wrap;html=1;rounded=0;glass=0;sketch=0;strokeColor=default;fillColor=none;" parent="fPTyw4SbEgRYlCSAsRBV-1" vertex="1">
                    <mxGeometry x="540" y="440" width="120" height="40" as="geometry"/>
                </mxCell>
                <mxCell id="9jONjeqD923eWWxhYU1Z-42" value="数据恢复" style="ellipse;whiteSpace=wrap;html=1;rounded=0;glass=0;sketch=0;strokeColor=default;fillColor=none;" parent="fPTyw4SbEgRYlCSAsRBV-1" vertex="1">
                    <mxGeometry x="540" y="500" width="120" height="40" as="geometry"/>
                </mxCell>
            </root>
        </mxGraphModel>
    </diagram>
    <diagram id="S7AFZfa9UCWgGOMznvz2" name="4.系统设计">
        <mxGraphModel dx="944" dy="648" grid="1" gridSize="10" guides="1" tooltips="1" connect="1" arrows="1" fold="1" page="1" pageScale="1" pageWidth="827" pageHeight="1169" math="0" shadow="0">
            <root>
                <mxCell id="Xn3EHZpzcCjz8WQeBtdx-0"/>
                <mxCell id="Xn3EHZpzcCjz8WQeBtdx-1" parent="Xn3EHZpzcCjz8WQeBtdx-0"/>
                <mxCell id="Xn3EHZpzcCjz8WQeBtdx-38" value="前后端总架构" style="swimlane;rounded=0;fillColor=none;" parent="Xn3EHZpzcCjz8WQeBtdx-1" vertex="1">
                    <mxGeometry x="170" y="20" width="497" height="504" as="geometry">
                        <mxRectangle x="61" y="14" width="129" height="23" as="alternateBounds"/>
                    </mxGeometry>
                </mxCell>
                <mxCell id="Xn3EHZpzcCjz8WQeBtdx-2" value="访问层" style="whiteSpace=wrap;html=1;" parent="Xn3EHZpzcCjz8WQeBtdx-38" vertex="1">
                    <mxGeometry x="46" y="59" width="70" height="40" as="geometry"/>
                </mxCell>
                <mxCell id="Xn3EHZpzcCjz8WQeBtdx-3" value="后端" style="whiteSpace=wrap;html=1;" parent="Xn3EHZpzcCjz8WQeBtdx-38" vertex="1">
                    <mxGeometry x="46" y="289" width="70" height="40" as="geometry"/>
                </mxCell>
                <mxCell id="Xn3EHZpzcCjz8WQeBtdx-5" value="浏览器" style="rounded=0;whiteSpace=wrap;html=1;" parent="Xn3EHZpzcCjz8WQeBtdx-38" vertex="1">
                    <mxGeometry x="146" y="59" width="320" height="40" as="geometry"/>
                </mxCell>
                <mxCell id="Xn3EHZpzcCjz8WQeBtdx-6" value="Element&amp;nbsp;Plus" style="whiteSpace=wrap;html=1;" parent="Xn3EHZpzcCjz8WQeBtdx-38" vertex="1">
                    <mxGeometry x="156" y="129" width="135" height="40" as="geometry"/>
                </mxCell>
                <mxCell id="Xn3EHZpzcCjz8WQeBtdx-9" value="Vue" style="whiteSpace=wrap;html=1;" parent="Xn3EHZpzcCjz8WQeBtdx-38" vertex="1">
                    <mxGeometry x="156" y="199" width="75" height="40" as="geometry"/>
                </mxCell>
                <mxCell id="Xn3EHZpzcCjz8WQeBtdx-10" value="Vue-Router" style="whiteSpace=wrap;html=1;" parent="Xn3EHZpzcCjz8WQeBtdx-38" vertex="1">
                    <mxGeometry x="241" y="199" width="70" height="40" as="geometry"/>
                </mxCell>
                <mxCell id="Xn3EHZpzcCjz8WQeBtdx-11" value="Vuex" style="whiteSpace=wrap;html=1;" parent="Xn3EHZpzcCjz8WQeBtdx-38" vertex="1">
                    <mxGeometry x="316" y="199" width="65" height="40" as="geometry"/>
                </mxCell>
                <mxCell id="Xn3EHZpzcCjz8WQeBtdx-14" value="前端UI" style="whiteSpace=wrap;html=1;" parent="Xn3EHZpzcCjz8WQeBtdx-38" vertex="1">
                    <mxGeometry x="46" y="129" width="70" height="40" as="geometry"/>
                </mxCell>
                <mxCell id="Xn3EHZpzcCjz8WQeBtdx-15" value="交互层" style="whiteSpace=wrap;html=1;" parent="Xn3EHZpzcCjz8WQeBtdx-38" vertex="1">
                    <mxGeometry x="46" y="199" width="70" height="40" as="geometry"/>
                </mxCell>
                <mxCell id="Xn3EHZpzcCjz8WQeBtdx-16" value="Axios" style="whiteSpace=wrap;html=1;" parent="Xn3EHZpzcCjz8WQeBtdx-38" vertex="1">
                    <mxGeometry x="391" y="199" width="70" height="40" as="geometry"/>
                </mxCell>
                <mxCell id="Xn3EHZpzcCjz8WQeBtdx-17" value="Apache&amp;nbsp;Echarts" style="whiteSpace=wrap;html=1;" parent="Xn3EHZpzcCjz8WQeBtdx-38" vertex="1">
                    <mxGeometry x="311" y="129" width="147" height="40" as="geometry"/>
                </mxCell>
                <mxCell id="Xn3EHZpzcCjz8WQeBtdx-19" value="" style="rounded=0;whiteSpace=wrap;html=1;fillColor=none;" parent="Xn3EHZpzcCjz8WQeBtdx-38" vertex="1">
                    <mxGeometry x="143.5" y="189" width="327.5" height="60" as="geometry"/>
                </mxCell>
                <mxCell id="Xn3EHZpzcCjz8WQeBtdx-20" value="" style="rounded=0;whiteSpace=wrap;html=1;fillColor=none;" parent="Xn3EHZpzcCjz8WQeBtdx-38" vertex="1">
                    <mxGeometry x="143.5" y="119" width="325" height="60" as="geometry"/>
                </mxCell>
                <mxCell id="Xn3EHZpzcCjz8WQeBtdx-21" value="SpringBoot" style="whiteSpace=wrap;html=1;" parent="Xn3EHZpzcCjz8WQeBtdx-38" vertex="1">
                    <mxGeometry x="153.5" y="289" width="140" height="40" as="geometry"/>
                </mxCell>
                <mxCell id="Xn3EHZpzcCjz8WQeBtdx-23" value="数据库" style="whiteSpace=wrap;html=1;" parent="Xn3EHZpzcCjz8WQeBtdx-38" vertex="1">
                    <mxGeometry x="46" y="349" width="70" height="40" as="geometry"/>
                </mxCell>
                <mxCell id="Xn3EHZpzcCjz8WQeBtdx-24" value="MySQL" style="whiteSpace=wrap;html=1;" parent="Xn3EHZpzcCjz8WQeBtdx-38" vertex="1">
                    <mxGeometry x="153.5" y="349" width="310" height="40" as="geometry"/>
                </mxCell>
                <mxCell id="Xn3EHZpzcCjz8WQeBtdx-25" value="基础设施" style="whiteSpace=wrap;html=1;" parent="Xn3EHZpzcCjz8WQeBtdx-38" vertex="1">
                    <mxGeometry x="46" y="419" width="70" height="40" as="geometry"/>
                </mxCell>
                <mxCell id="Xn3EHZpzcCjz8WQeBtdx-27" value="服务器" style="whiteSpace=wrap;html=1;" parent="Xn3EHZpzcCjz8WQeBtdx-38" vertex="1">
                    <mxGeometry x="156" y="419" width="90" height="40" as="geometry"/>
                </mxCell>
                <mxCell id="Xn3EHZpzcCjz8WQeBtdx-28" value="操作系统" style="whiteSpace=wrap;html=1;" parent="Xn3EHZpzcCjz8WQeBtdx-38" vertex="1">
                    <mxGeometry x="260" y="419" width="92" height="40" as="geometry"/>
                </mxCell>
                <mxCell id="Xn3EHZpzcCjz8WQeBtdx-29" value="中间件" style="whiteSpace=wrap;html=1;" parent="Xn3EHZpzcCjz8WQeBtdx-38" vertex="1">
                    <mxGeometry x="366" y="419" width="95" height="40" as="geometry"/>
                </mxCell>
                <mxCell id="Xn3EHZpzcCjz8WQeBtdx-31" value="" style="rounded=0;whiteSpace=wrap;html=1;fillColor=none;" parent="Xn3EHZpzcCjz8WQeBtdx-38" vertex="1">
                    <mxGeometry x="146" y="409" width="325" height="60" as="geometry"/>
                </mxCell>
                <mxCell id="Xn3EHZpzcCjz8WQeBtdx-35" value="MyBatis&amp;nbsp;Plus" style="whiteSpace=wrap;html=1;" parent="Xn3EHZpzcCjz8WQeBtdx-38" vertex="1">
                    <mxGeometry x="313.5" y="289" width="150" height="40" as="geometry"/>
                </mxCell>
                <mxCell id="Xn3EHZpzcCjz8WQeBtdx-4" value="" style="endArrow=none;html=1;rounded=0;edgeStyle=orthogonalEdgeStyle;dashed=1;" parent="Xn3EHZpzcCjz8WQeBtdx-38" edge="1">
                    <mxGeometry width="50" height="50" relative="1" as="geometry">
                        <mxPoint x="18" y="266" as="sourcePoint"/>
                        <mxPoint x="479" y="266" as="targetPoint"/>
                    </mxGeometry>
                </mxCell>
                <mxCell id="fqmAPnziwE6q0jgDyLEG-1" value="用户" style="swimlane;whiteSpace=wrap;html=1;" parent="Xn3EHZpzcCjz8WQeBtdx-1" vertex="1">
                    <mxGeometry x="120" y="1650" width="385" height="300" as="geometry"/>
                </mxCell>
                <mxCell id="fqmAPnziwE6q0jgDyLEG-172" style="edgeStyle=none;html=1;exitX=0.5;exitY=0;exitDx=0;exitDy=0;entryX=0.5;entryY=1;entryDx=0;entryDy=0;endArrow=none;endFill=0;" parent="fqmAPnziwE6q0jgDyLEG-1" source="fqmAPnziwE6q0jgDyLEG-167" target="fqmAPnziwE6q0jgDyLEG-169" edge="1">
                    <mxGeometry relative="1" as="geometry"/>
                </mxCell>
                <mxCell id="fqmAPnziwE6q0jgDyLEG-173" style="edgeStyle=none;html=1;exitX=0.5;exitY=0;exitDx=0;exitDy=0;entryX=0.5;entryY=1;entryDx=0;entryDy=0;endArrow=none;endFill=0;" parent="fqmAPnziwE6q0jgDyLEG-1" source="fqmAPnziwE6q0jgDyLEG-167" target="fqmAPnziwE6q0jgDyLEG-170" edge="1">
                    <mxGeometry relative="1" as="geometry"/>
                </mxCell>
                <mxCell id="fqmAPnziwE6q0jgDyLEG-174" style="edgeStyle=none;html=1;exitX=0.5;exitY=0;exitDx=0;exitDy=0;entryX=0.5;entryY=1;entryDx=0;entryDy=0;endArrow=none;endFill=0;" parent="fqmAPnziwE6q0jgDyLEG-1" source="fqmAPnziwE6q0jgDyLEG-167" target="fqmAPnziwE6q0jgDyLEG-171" edge="1">
                    <mxGeometry relative="1" as="geometry"/>
                </mxCell>
                <mxCell id="fqmAPnziwE6q0jgDyLEG-167" value="用户" style="whiteSpace=wrap;html=1;" parent="fqmAPnziwE6q0jgDyLEG-1" vertex="1">
                    <mxGeometry x="160" y="230" width="80" height="34" as="geometry"/>
                </mxCell>
                <mxCell id="fqmAPnziwE6q0jgDyLEG-169" value="用户名" style="ellipse;whiteSpace=wrap;html=1;" parent="fqmAPnziwE6q0jgDyLEG-1" vertex="1">
                    <mxGeometry x="55" y="140" width="90" height="30" as="geometry"/>
                </mxCell>
                <mxCell id="fqmAPnziwE6q0jgDyLEG-170" value="密码&lt;span style=&quot;white-space: pre;&quot;&gt;&#9;&lt;/span&gt;" style="ellipse;whiteSpace=wrap;html=1;" parent="fqmAPnziwE6q0jgDyLEG-1" vertex="1">
                    <mxGeometry x="165" y="70" width="90" height="30" as="geometry"/>
                </mxCell>
                <mxCell id="fqmAPnziwE6q0jgDyLEG-171" value="创建时间" style="ellipse;whiteSpace=wrap;html=1;" parent="fqmAPnziwE6q0jgDyLEG-1" vertex="1">
                    <mxGeometry x="255" y="130" width="90" height="30" as="geometry"/>
                </mxCell>
                <mxCell id="fqmAPnziwE6q0jgDyLEG-2" value="备份" style="swimlane;whiteSpace=wrap;html=1;" parent="Xn3EHZpzcCjz8WQeBtdx-1" vertex="1">
                    <mxGeometry x="130" y="1200" width="390" height="330" as="geometry"/>
                </mxCell>
                <mxCell id="fqmAPnziwE6q0jgDyLEG-182" value="备份" style="whiteSpace=wrap;html=1;" parent="fqmAPnziwE6q0jgDyLEG-2" vertex="1">
                    <mxGeometry x="118" y="240" width="120" height="30" as="geometry"/>
                </mxCell>
                <mxCell id="fqmAPnziwE6q0jgDyLEG-183" style="edgeStyle=none;html=1;exitX=0.5;exitY=1;exitDx=0;exitDy=0;entryX=0.5;entryY=0;entryDx=0;entryDy=0;endArrow=none;endFill=0;" parent="fqmAPnziwE6q0jgDyLEG-2" source="fqmAPnziwE6q0jgDyLEG-184" target="fqmAPnziwE6q0jgDyLEG-182" edge="1">
                    <mxGeometry relative="1" as="geometry"/>
                </mxCell>
                <mxCell id="fqmAPnziwE6q0jgDyLEG-184" value="文件名" style="ellipse;whiteSpace=wrap;html=1;" parent="fqmAPnziwE6q0jgDyLEG-2" vertex="1">
                    <mxGeometry x="133" y="120" width="90" height="30" as="geometry"/>
                </mxCell>
                <mxCell id="fqmAPnziwE6q0jgDyLEG-185" value="备份时间" style="ellipse;whiteSpace=wrap;html=1;" parent="fqmAPnziwE6q0jgDyLEG-2" vertex="1">
                    <mxGeometry x="223" y="60" width="90" height="30" as="geometry"/>
                </mxCell>
                <mxCell id="fqmAPnziwE6q0jgDyLEG-186" value="表名" style="ellipse;whiteSpace=wrap;html=1;" parent="fqmAPnziwE6q0jgDyLEG-2" vertex="1">
                    <mxGeometry x="50" y="80" width="90" height="30" as="geometry"/>
                </mxCell>
                <mxCell id="fqmAPnziwE6q0jgDyLEG-187" value="备注" style="ellipse;whiteSpace=wrap;html=1;" parent="fqmAPnziwE6q0jgDyLEG-2" vertex="1">
                    <mxGeometry x="260" y="128" width="97" height="34" as="geometry"/>
                </mxCell>
                <mxCell id="fqmAPnziwE6q0jgDyLEG-189" style="edgeStyle=none;html=1;exitX=0.5;exitY=1;exitDx=0;exitDy=0;endArrow=none;endFill=0;entryX=0.5;entryY=0;entryDx=0;entryDy=0;" parent="fqmAPnziwE6q0jgDyLEG-2" source="fqmAPnziwE6q0jgDyLEG-185" target="fqmAPnziwE6q0jgDyLEG-182" edge="1">
                    <mxGeometry relative="1" as="geometry">
                        <mxPoint x="-1561" y="-910" as="targetPoint"/>
                    </mxGeometry>
                </mxCell>
                <mxCell id="fqmAPnziwE6q0jgDyLEG-190" style="edgeStyle=none;html=1;exitX=0.5;exitY=1;exitDx=0;exitDy=0;endArrow=none;endFill=0;entryX=0.5;entryY=0;entryDx=0;entryDy=0;" parent="fqmAPnziwE6q0jgDyLEG-2" source="fqmAPnziwE6q0jgDyLEG-186" target="fqmAPnziwE6q0jgDyLEG-182" edge="1">
                    <mxGeometry relative="1" as="geometry">
                        <mxPoint x="-1561" y="-910" as="targetPoint"/>
                    </mxGeometry>
                </mxCell>
                <mxCell id="fqmAPnziwE6q0jgDyLEG-193" style="edgeStyle=none;html=1;exitX=0.5;exitY=1;exitDx=0;exitDy=0;entryX=0.5;entryY=0;entryDx=0;entryDy=0;endArrow=none;endFill=0;" parent="fqmAPnziwE6q0jgDyLEG-2" source="fqmAPnziwE6q0jgDyLEG-194" target="fqmAPnziwE6q0jgDyLEG-182" edge="1">
                    <mxGeometry relative="1" as="geometry"/>
                </mxCell>
                <mxCell id="fqmAPnziwE6q0jgDyLEG-194" value="id" style="ellipse;whiteSpace=wrap;html=1;" parent="fqmAPnziwE6q0jgDyLEG-2" vertex="1">
                    <mxGeometry x="20" y="140" width="90" height="30" as="geometry"/>
                </mxCell>
                <mxCell id="fqmAPnziwE6q0jgDyLEG-195" style="edgeStyle=none;html=1;exitX=0.5;exitY=1;exitDx=0;exitDy=0;endArrow=none;endFill=0;entryX=0.5;entryY=0;entryDx=0;entryDy=0;" parent="fqmAPnziwE6q0jgDyLEG-2" source="fqmAPnziwE6q0jgDyLEG-187" target="fqmAPnziwE6q0jgDyLEG-182" edge="1">
                    <mxGeometry relative="1" as="geometry">
                        <mxPoint x="-1511" y="-783" as="targetPoint"/>
                    </mxGeometry>
                </mxCell>
                <mxCell id="fqmAPnziwE6q0jgDyLEG-3" value="认定表" style="swimlane;whiteSpace=wrap;html=1;" parent="Xn3EHZpzcCjz8WQeBtdx-1" vertex="1">
                    <mxGeometry x="740" y="30" width="710" height="470" as="geometry"/>
                </mxCell>
                <mxCell id="fqmAPnziwE6q0jgDyLEG-10" value="认定信息" style="whiteSpace=wrap;html=1;" parent="fqmAPnziwE6q0jgDyLEG-3" vertex="1">
                    <mxGeometry x="286" y="430" width="120" height="30" as="geometry"/>
                </mxCell>
                <mxCell id="fqmAPnziwE6q0jgDyLEG-12" style="edgeStyle=none;html=1;exitX=0.5;exitY=1;exitDx=0;exitDy=0;entryX=0.5;entryY=0;entryDx=0;entryDy=0;endArrow=none;endFill=0;" parent="fqmAPnziwE6q0jgDyLEG-3" source="fqmAPnziwE6q0jgDyLEG-11" target="fqmAPnziwE6q0jgDyLEG-10" edge="1">
                    <mxGeometry relative="1" as="geometry"/>
                </mxCell>
                <mxCell id="fqmAPnziwE6q0jgDyLEG-11" value="资格种类" style="ellipse;whiteSpace=wrap;html=1;" parent="fqmAPnziwE6q0jgDyLEG-3" vertex="1">
                    <mxGeometry x="10" y="280" width="90" height="30" as="geometry"/>
                </mxCell>
                <mxCell id="fqmAPnziwE6q0jgDyLEG-31" style="edgeStyle=none;html=1;exitX=0.5;exitY=1;exitDx=0;exitDy=0;entryX=0.5;entryY=0;entryDx=0;entryDy=0;endArrow=none;endFill=0;" parent="fqmAPnziwE6q0jgDyLEG-3" source="fqmAPnziwE6q0jgDyLEG-15" target="fqmAPnziwE6q0jgDyLEG-10" edge="1">
                    <mxGeometry relative="1" as="geometry"/>
                </mxCell>
                <mxCell id="fqmAPnziwE6q0jgDyLEG-15" value="最高学位" style="ellipse;whiteSpace=wrap;html=1;" parent="fqmAPnziwE6q0jgDyLEG-3" vertex="1">
                    <mxGeometry x="16" y="220" width="90" height="30" as="geometry"/>
                </mxCell>
                <mxCell id="fqmAPnziwE6q0jgDyLEG-16" value="认定批次" style="ellipse;whiteSpace=wrap;html=1;" parent="fqmAPnziwE6q0jgDyLEG-3" vertex="1">
                    <mxGeometry x="16" y="176" width="90" height="30" as="geometry"/>
                </mxCell>
                <mxCell id="fqmAPnziwE6q0jgDyLEG-17" value="确认地点" style="ellipse;whiteSpace=wrap;html=1;" parent="fqmAPnziwE6q0jgDyLEG-3" vertex="1">
                    <mxGeometry x="40" y="111" width="90" height="30" as="geometry"/>
                </mxCell>
                <mxCell id="fqmAPnziwE6q0jgDyLEG-18" value="考试类型" style="ellipse;whiteSpace=wrap;html=1;" parent="fqmAPnziwE6q0jgDyLEG-3" vertex="1">
                    <mxGeometry x="256" y="133" width="90" height="30" as="geometry"/>
                </mxCell>
                <mxCell id="fqmAPnziwE6q0jgDyLEG-19" value="证件号码" style="ellipse;whiteSpace=wrap;html=1;" parent="fqmAPnziwE6q0jgDyLEG-3" vertex="1">
                    <mxGeometry x="67" y="53" width="90" height="30" as="geometry"/>
                </mxCell>
                <mxCell id="fqmAPnziwE6q0jgDyLEG-20" value="认定机构" style="ellipse;whiteSpace=wrap;html=1;" parent="fqmAPnziwE6q0jgDyLEG-3" vertex="1">
                    <mxGeometry x="196" y="71" width="90" height="30" as="geometry"/>
                </mxCell>
                <mxCell id="fqmAPnziwE6q0jgDyLEG-21" value="毕业院校" style="ellipse;whiteSpace=wrap;html=1;" parent="fqmAPnziwE6q0jgDyLEG-3" vertex="1">
                    <mxGeometry x="150" y="111" width="90" height="30" as="geometry"/>
                </mxCell>
                <mxCell id="fqmAPnziwE6q0jgDyLEG-39" style="edgeStyle=none;html=1;exitX=0.5;exitY=1;exitDx=0;exitDy=0;entryX=0.5;entryY=0;entryDx=0;entryDy=0;endArrow=none;endFill=0;" parent="fqmAPnziwE6q0jgDyLEG-3" source="fqmAPnziwE6q0jgDyLEG-23" target="fqmAPnziwE6q0jgDyLEG-10" edge="1">
                    <mxGeometry relative="1" as="geometry"/>
                </mxCell>
                <mxCell id="fqmAPnziwE6q0jgDyLEG-23" value="机构类型" style="ellipse;whiteSpace=wrap;html=1;" parent="fqmAPnziwE6q0jgDyLEG-3" vertex="1">
                    <mxGeometry x="346" y="91" width="90" height="30" as="geometry"/>
                </mxCell>
                <mxCell id="fqmAPnziwE6q0jgDyLEG-38" style="edgeStyle=none;html=1;exitX=0.5;exitY=1;exitDx=0;exitDy=0;entryX=0.5;entryY=0;entryDx=0;entryDy=0;endArrow=none;endFill=0;" parent="fqmAPnziwE6q0jgDyLEG-3" source="fqmAPnziwE6q0jgDyLEG-22" target="fqmAPnziwE6q0jgDyLEG-10" edge="1">
                    <mxGeometry relative="1" as="geometry"/>
                </mxCell>
                <mxCell id="fqmAPnziwE6q0jgDyLEG-22" value="任教学科" style="ellipse;whiteSpace=wrap;html=1;" parent="fqmAPnziwE6q0jgDyLEG-3" vertex="1">
                    <mxGeometry x="306" y="41" width="90" height="30" as="geometry"/>
                </mxCell>
                <mxCell id="fqmAPnziwE6q0jgDyLEG-25" value="证书号码" style="ellipse;whiteSpace=wrap;html=1;" parent="fqmAPnziwE6q0jgDyLEG-3" vertex="1">
                    <mxGeometry x="576" y="41" width="90" height="30" as="geometry"/>
                </mxCell>
                <mxCell id="fqmAPnziwE6q0jgDyLEG-27" value="所学专业" style="ellipse;whiteSpace=wrap;html=1;" parent="fqmAPnziwE6q0jgDyLEG-3" vertex="1">
                    <mxGeometry x="576" y="141" width="90" height="30" as="geometry"/>
                </mxCell>
                <mxCell id="fqmAPnziwE6q0jgDyLEG-29" value="最高学历" style="ellipse;whiteSpace=wrap;html=1;" parent="fqmAPnziwE6q0jgDyLEG-3" vertex="1">
                    <mxGeometry x="376" y="151" width="90" height="30" as="geometry"/>
                </mxCell>
                <mxCell id="fqmAPnziwE6q0jgDyLEG-28" value="专业类别" style="ellipse;whiteSpace=wrap;html=1;" parent="fqmAPnziwE6q0jgDyLEG-3" vertex="1">
                    <mxGeometry x="476" y="71" width="90" height="30" as="geometry"/>
                </mxCell>
                <mxCell id="fqmAPnziwE6q0jgDyLEG-32" style="edgeStyle=none;html=1;endArrow=none;endFill=0;entryX=0.5;entryY=0;entryDx=0;entryDy=0;exitX=1;exitY=1;exitDx=0;exitDy=0;" parent="fqmAPnziwE6q0jgDyLEG-3" source="fqmAPnziwE6q0jgDyLEG-16" target="fqmAPnziwE6q0jgDyLEG-10" edge="1">
                    <mxGeometry relative="1" as="geometry">
                        <mxPoint x="296" y="331" as="targetPoint"/>
                        <mxPoint x="110" y="223" as="sourcePoint"/>
                    </mxGeometry>
                </mxCell>
                <mxCell id="fqmAPnziwE6q0jgDyLEG-33" style="edgeStyle=none;html=1;exitX=0.5;exitY=1;exitDx=0;exitDy=0;endArrow=none;endFill=0;entryX=0.5;entryY=0;entryDx=0;entryDy=0;" parent="fqmAPnziwE6q0jgDyLEG-3" source="fqmAPnziwE6q0jgDyLEG-17" target="fqmAPnziwE6q0jgDyLEG-10" edge="1">
                    <mxGeometry relative="1" as="geometry">
                        <mxPoint x="296" y="331" as="targetPoint"/>
                    </mxGeometry>
                </mxCell>
                <mxCell id="fqmAPnziwE6q0jgDyLEG-34" style="edgeStyle=none;html=1;exitX=0.5;exitY=1;exitDx=0;exitDy=0;endArrow=none;endFill=0;entryX=0.5;entryY=0;entryDx=0;entryDy=0;" parent="fqmAPnziwE6q0jgDyLEG-3" source="fqmAPnziwE6q0jgDyLEG-19" target="fqmAPnziwE6q0jgDyLEG-10" edge="1">
                    <mxGeometry relative="1" as="geometry">
                        <mxPoint x="296" y="331" as="targetPoint"/>
                    </mxGeometry>
                </mxCell>
                <mxCell id="fqmAPnziwE6q0jgDyLEG-37" style="edgeStyle=none;html=1;exitX=0.5;exitY=1;exitDx=0;exitDy=0;endArrow=none;endFill=0;entryX=0.5;entryY=0;entryDx=0;entryDy=0;" parent="fqmAPnziwE6q0jgDyLEG-3" source="fqmAPnziwE6q0jgDyLEG-21" target="fqmAPnziwE6q0jgDyLEG-10" edge="1">
                    <mxGeometry relative="1" as="geometry">
                        <mxPoint x="296" y="331" as="targetPoint"/>
                    </mxGeometry>
                </mxCell>
                <mxCell id="fqmAPnziwE6q0jgDyLEG-35" style="edgeStyle=none;html=1;exitX=0.5;exitY=1;exitDx=0;exitDy=0;endArrow=none;endFill=0;entryX=0.5;entryY=0;entryDx=0;entryDy=0;" parent="fqmAPnziwE6q0jgDyLEG-3" source="fqmAPnziwE6q0jgDyLEG-20" target="fqmAPnziwE6q0jgDyLEG-10" edge="1">
                    <mxGeometry relative="1" as="geometry">
                        <mxPoint x="296" y="331" as="targetPoint"/>
                    </mxGeometry>
                </mxCell>
                <mxCell id="fqmAPnziwE6q0jgDyLEG-36" style="edgeStyle=none;html=1;exitX=0.5;exitY=1;exitDx=0;exitDy=0;endArrow=none;endFill=0;" parent="fqmAPnziwE6q0jgDyLEG-3" source="fqmAPnziwE6q0jgDyLEG-18" target="fqmAPnziwE6q0jgDyLEG-10" edge="1">
                    <mxGeometry relative="1" as="geometry">
                        <mxPoint x="296" y="331" as="targetPoint"/>
                    </mxGeometry>
                </mxCell>
                <mxCell id="fqmAPnziwE6q0jgDyLEG-44" style="edgeStyle=none;html=1;exitX=0.5;exitY=1;exitDx=0;exitDy=0;endArrow=none;endFill=0;entryX=0.5;entryY=0;entryDx=0;entryDy=0;" parent="fqmAPnziwE6q0jgDyLEG-3" source="fqmAPnziwE6q0jgDyLEG-29" target="fqmAPnziwE6q0jgDyLEG-10" edge="1">
                    <mxGeometry relative="1" as="geometry">
                        <mxPoint x="296" y="331" as="targetPoint"/>
                    </mxGeometry>
                </mxCell>
                <mxCell id="fqmAPnziwE6q0jgDyLEG-24" value="姓名" style="ellipse;whiteSpace=wrap;html=1;" parent="fqmAPnziwE6q0jgDyLEG-3" vertex="1">
                    <mxGeometry x="586" y="321" width="90" height="30" as="geometry"/>
                </mxCell>
                <mxCell id="fqmAPnziwE6q0jgDyLEG-26" value="市" style="ellipse;whiteSpace=wrap;html=1;" parent="fqmAPnziwE6q0jgDyLEG-3" vertex="1">
                    <mxGeometry x="597" y="266" width="90" height="30" as="geometry"/>
                </mxCell>
                <mxCell id="fqmAPnziwE6q0jgDyLEG-30" value="性别" style="ellipse;whiteSpace=wrap;html=1;" parent="fqmAPnziwE6q0jgDyLEG-3" vertex="1">
                    <mxGeometry x="576" y="206" width="90" height="30" as="geometry"/>
                </mxCell>
                <mxCell id="fqmAPnziwE6q0jgDyLEG-49" style="edgeStyle=none;html=1;exitX=0.5;exitY=1;exitDx=0;exitDy=0;entryX=0.5;entryY=0;entryDx=0;entryDy=0;endArrow=none;endFill=0;" parent="fqmAPnziwE6q0jgDyLEG-3" source="fqmAPnziwE6q0jgDyLEG-48" target="fqmAPnziwE6q0jgDyLEG-10" edge="1">
                    <mxGeometry relative="1" as="geometry"/>
                </mxCell>
                <mxCell id="fqmAPnziwE6q0jgDyLEG-48" value="id" style="ellipse;whiteSpace=wrap;html=1;" parent="fqmAPnziwE6q0jgDyLEG-3" vertex="1">
                    <mxGeometry x="30" y="350" width="90" height="30" as="geometry"/>
                </mxCell>
                <mxCell id="fqmAPnziwE6q0jgDyLEG-43" style="edgeStyle=none;html=1;exitX=0.5;exitY=1;exitDx=0;exitDy=0;endArrow=none;endFill=0;entryX=0.5;entryY=0;entryDx=0;entryDy=0;" parent="fqmAPnziwE6q0jgDyLEG-3" source="fqmAPnziwE6q0jgDyLEG-28" target="fqmAPnziwE6q0jgDyLEG-10" edge="1">
                    <mxGeometry relative="1" as="geometry">
                        <mxPoint x="346" y="458" as="targetPoint"/>
                    </mxGeometry>
                </mxCell>
                <mxCell id="fqmAPnziwE6q0jgDyLEG-40" style="edgeStyle=none;html=1;exitX=0.5;exitY=1;exitDx=0;exitDy=0;endArrow=none;endFill=0;entryX=0.5;entryY=0;entryDx=0;entryDy=0;" parent="fqmAPnziwE6q0jgDyLEG-3" source="fqmAPnziwE6q0jgDyLEG-25" target="fqmAPnziwE6q0jgDyLEG-10" edge="1">
                    <mxGeometry relative="1" as="geometry">
                        <mxPoint x="346" y="458" as="targetPoint"/>
                    </mxGeometry>
                </mxCell>
                <mxCell id="fqmAPnziwE6q0jgDyLEG-41" style="edgeStyle=none;html=1;exitX=0.5;exitY=1;exitDx=0;exitDy=0;endArrow=none;endFill=0;entryX=0.5;entryY=0;entryDx=0;entryDy=0;" parent="fqmAPnziwE6q0jgDyLEG-3" source="fqmAPnziwE6q0jgDyLEG-27" target="fqmAPnziwE6q0jgDyLEG-10" edge="1">
                    <mxGeometry relative="1" as="geometry">
                        <mxPoint x="346" y="458" as="targetPoint"/>
                    </mxGeometry>
                </mxCell>
                <mxCell id="fqmAPnziwE6q0jgDyLEG-42" style="edgeStyle=none;html=1;exitX=0.5;exitY=1;exitDx=0;exitDy=0;endArrow=none;endFill=0;entryX=0.5;entryY=0;entryDx=0;entryDy=0;" parent="fqmAPnziwE6q0jgDyLEG-3" source="fqmAPnziwE6q0jgDyLEG-30" target="fqmAPnziwE6q0jgDyLEG-10" edge="1">
                    <mxGeometry relative="1" as="geometry">
                        <mxPoint x="346" y="458" as="targetPoint"/>
                    </mxGeometry>
                </mxCell>
                <mxCell id="fqmAPnziwE6q0jgDyLEG-45" style="edgeStyle=none;html=1;exitX=0.5;exitY=1;exitDx=0;exitDy=0;endArrow=none;endFill=0;entryX=0.5;entryY=0;entryDx=0;entryDy=0;" parent="fqmAPnziwE6q0jgDyLEG-3" source="fqmAPnziwE6q0jgDyLEG-26" target="fqmAPnziwE6q0jgDyLEG-10" edge="1">
                    <mxGeometry relative="1" as="geometry">
                        <mxPoint x="346" y="458" as="targetPoint"/>
                    </mxGeometry>
                </mxCell>
                <mxCell id="fqmAPnziwE6q0jgDyLEG-46" style="edgeStyle=none;html=1;exitX=0.5;exitY=1;exitDx=0;exitDy=0;endArrow=none;endFill=0;entryX=0.5;entryY=0;entryDx=0;entryDy=0;" parent="fqmAPnziwE6q0jgDyLEG-3" source="fqmAPnziwE6q0jgDyLEG-24" target="fqmAPnziwE6q0jgDyLEG-10" edge="1">
                    <mxGeometry relative="1" as="geometry">
                        <mxPoint x="346" y="458" as="targetPoint"/>
                    </mxGeometry>
                </mxCell>
                <mxCell id="fqmAPnziwE6q0jgDyLEG-4" value="笔试成绩表" style="swimlane;whiteSpace=wrap;html=1;" parent="Xn3EHZpzcCjz8WQeBtdx-1" vertex="1">
                    <mxGeometry x="150" y="600" width="653" height="466" as="geometry"/>
                </mxCell>
                <mxCell id="fqmAPnziwE6q0jgDyLEG-51" value="笔试成绩" style="whiteSpace=wrap;html=1;" parent="fqmAPnziwE6q0jgDyLEG-4" vertex="1">
                    <mxGeometry x="230" y="420" width="120" height="30" as="geometry"/>
                </mxCell>
                <mxCell id="fqmAPnziwE6q0jgDyLEG-54" style="edgeStyle=none;html=1;exitX=0.5;exitY=1;exitDx=0;exitDy=0;entryX=0.5;entryY=0;entryDx=0;entryDy=0;endArrow=none;endFill=0;" parent="fqmAPnziwE6q0jgDyLEG-4" source="fqmAPnziwE6q0jgDyLEG-55" target="fqmAPnziwE6q0jgDyLEG-51" edge="1">
                    <mxGeometry relative="1" as="geometry"/>
                </mxCell>
                <mxCell id="fqmAPnziwE6q0jgDyLEG-55" value="姓名" style="ellipse;whiteSpace=wrap;html=1;" parent="fqmAPnziwE6q0jgDyLEG-4" vertex="1">
                    <mxGeometry x="5" y="285" width="90" height="30" as="geometry"/>
                </mxCell>
                <mxCell id="fqmAPnziwE6q0jgDyLEG-57" value="准考证号" style="ellipse;whiteSpace=wrap;html=1;" parent="fqmAPnziwE6q0jgDyLEG-4" vertex="1">
                    <mxGeometry x="25" y="195" width="90" height="30" as="geometry"/>
                </mxCell>
                <mxCell id="fqmAPnziwE6q0jgDyLEG-58" value="教育心理学成绩" style="ellipse;whiteSpace=wrap;html=1;" parent="fqmAPnziwE6q0jgDyLEG-4" vertex="1">
                    <mxGeometry x="180" y="80" width="90" height="30" as="geometry"/>
                </mxCell>
                <mxCell id="fqmAPnziwE6q0jgDyLEG-59" value="身份证号" style="ellipse;whiteSpace=wrap;html=1;" parent="fqmAPnziwE6q0jgDyLEG-4" vertex="1">
                    <mxGeometry x="32" y="102" width="90" height="30" as="geometry"/>
                </mxCell>
                <mxCell id="fqmAPnziwE6q0jgDyLEG-61" value="教育学成绩" style="ellipse;whiteSpace=wrap;html=1;" parent="fqmAPnziwE6q0jgDyLEG-4" vertex="1">
                    <mxGeometry x="122" y="143" width="90" height="30" as="geometry"/>
                </mxCell>
                <mxCell id="fqmAPnziwE6q0jgDyLEG-64" style="edgeStyle=none;html=1;exitX=0.5;exitY=1;exitDx=0;exitDy=0;entryX=0.5;entryY=0;entryDx=0;entryDy=0;endArrow=none;endFill=0;" parent="fqmAPnziwE6q0jgDyLEG-4" source="fqmAPnziwE6q0jgDyLEG-65" target="fqmAPnziwE6q0jgDyLEG-51" edge="1">
                    <mxGeometry relative="1" as="geometry"/>
                </mxCell>
                <mxCell id="fqmAPnziwE6q0jgDyLEG-65" value="职业道德修养和高等教育法规成绩" style="ellipse;whiteSpace=wrap;html=1;" parent="fqmAPnziwE6q0jgDyLEG-4" vertex="1">
                    <mxGeometry x="221.5" y="30" width="210" height="50" as="geometry"/>
                </mxCell>
                <mxCell id="fqmAPnziwE6q0jgDyLEG-66" value="教育心理学考试状态" style="ellipse;whiteSpace=wrap;html=1;" parent="fqmAPnziwE6q0jgDyLEG-4" vertex="1">
                    <mxGeometry x="380" y="120" width="130" height="42" as="geometry"/>
                </mxCell>
                <mxCell id="fqmAPnziwE6q0jgDyLEG-67" value="职业道德修养和高等教育法规状态" style="ellipse;whiteSpace=wrap;html=1;" parent="fqmAPnziwE6q0jgDyLEG-4" vertex="1">
                    <mxGeometry x="431" y="80" width="210" height="40" as="geometry"/>
                </mxCell>
                <mxCell id="fqmAPnziwE6q0jgDyLEG-68" value="教育学考试状态" style="ellipse;whiteSpace=wrap;html=1;" parent="fqmAPnziwE6q0jgDyLEG-4" vertex="1">
                    <mxGeometry x="318" y="169" width="100" height="40" as="geometry"/>
                </mxCell>
                <mxCell id="fqmAPnziwE6q0jgDyLEG-71" style="edgeStyle=none;html=1;exitX=0.5;exitY=1;exitDx=0;exitDy=0;endArrow=none;endFill=0;entryX=0.5;entryY=0;entryDx=0;entryDy=0;" parent="fqmAPnziwE6q0jgDyLEG-4" source="fqmAPnziwE6q0jgDyLEG-57" target="fqmAPnziwE6q0jgDyLEG-51" edge="1">
                    <mxGeometry relative="1" as="geometry">
                        <mxPoint x="-479" y="350" as="targetPoint"/>
                    </mxGeometry>
                </mxCell>
                <mxCell id="fqmAPnziwE6q0jgDyLEG-72" style="edgeStyle=none;html=1;exitX=0.5;exitY=1;exitDx=0;exitDy=0;endArrow=none;endFill=0;entryX=0.5;entryY=0;entryDx=0;entryDy=0;" parent="fqmAPnziwE6q0jgDyLEG-4" source="fqmAPnziwE6q0jgDyLEG-59" target="fqmAPnziwE6q0jgDyLEG-51" edge="1">
                    <mxGeometry relative="1" as="geometry">
                        <mxPoint x="-479" y="350" as="targetPoint"/>
                    </mxGeometry>
                </mxCell>
                <mxCell id="fqmAPnziwE6q0jgDyLEG-73" style="edgeStyle=none;html=1;exitX=0.5;exitY=1;exitDx=0;exitDy=0;endArrow=none;endFill=0;entryX=0.5;entryY=0;entryDx=0;entryDy=0;" parent="fqmAPnziwE6q0jgDyLEG-4" source="fqmAPnziwE6q0jgDyLEG-61" target="fqmAPnziwE6q0jgDyLEG-51" edge="1">
                    <mxGeometry relative="1" as="geometry">
                        <mxPoint x="-479" y="350" as="targetPoint"/>
                    </mxGeometry>
                </mxCell>
                <mxCell id="fqmAPnziwE6q0jgDyLEG-75" style="edgeStyle=none;html=1;exitX=0.5;exitY=1;exitDx=0;exitDy=0;endArrow=none;endFill=0;" parent="fqmAPnziwE6q0jgDyLEG-4" source="fqmAPnziwE6q0jgDyLEG-58" target="fqmAPnziwE6q0jgDyLEG-51" edge="1">
                    <mxGeometry relative="1" as="geometry">
                        <mxPoint x="-479" y="350" as="targetPoint"/>
                    </mxGeometry>
                </mxCell>
                <mxCell id="fqmAPnziwE6q0jgDyLEG-76" style="edgeStyle=none;html=1;exitX=0.5;exitY=1;exitDx=0;exitDy=0;endArrow=none;endFill=0;entryX=0.5;entryY=0;entryDx=0;entryDy=0;" parent="fqmAPnziwE6q0jgDyLEG-4" source="fqmAPnziwE6q0jgDyLEG-68" target="fqmAPnziwE6q0jgDyLEG-51" edge="1">
                    <mxGeometry relative="1" as="geometry">
                        <mxPoint x="-479" y="350" as="targetPoint"/>
                    </mxGeometry>
                </mxCell>
                <mxCell id="fqmAPnziwE6q0jgDyLEG-77" value="性别" style="ellipse;whiteSpace=wrap;html=1;" parent="fqmAPnziwE6q0jgDyLEG-4" vertex="1">
                    <mxGeometry x="551" y="322" width="90" height="30" as="geometry"/>
                </mxCell>
                <mxCell id="fqmAPnziwE6q0jgDyLEG-78" value="考试时间" style="ellipse;whiteSpace=wrap;html=1;" parent="fqmAPnziwE6q0jgDyLEG-4" vertex="1">
                    <mxGeometry x="543" y="258" width="90" height="30" as="geometry"/>
                </mxCell>
                <mxCell id="fqmAPnziwE6q0jgDyLEG-79" value="工作单位&lt;span style=&quot;white-space: pre;&quot;&gt;&#9;&lt;/span&gt;" style="ellipse;whiteSpace=wrap;html=1;" parent="fqmAPnziwE6q0jgDyLEG-4" vertex="1">
                    <mxGeometry x="535" y="162" width="90" height="30" as="geometry"/>
                </mxCell>
                <mxCell id="fqmAPnziwE6q0jgDyLEG-80" style="edgeStyle=none;html=1;exitX=0.5;exitY=1;exitDx=0;exitDy=0;entryX=0.5;entryY=0;entryDx=0;entryDy=0;endArrow=none;endFill=0;" parent="fqmAPnziwE6q0jgDyLEG-4" source="fqmAPnziwE6q0jgDyLEG-81" target="fqmAPnziwE6q0jgDyLEG-51" edge="1">
                    <mxGeometry relative="1" as="geometry"/>
                </mxCell>
                <mxCell id="fqmAPnziwE6q0jgDyLEG-81" value="id" style="ellipse;whiteSpace=wrap;html=1;" parent="fqmAPnziwE6q0jgDyLEG-4" vertex="1">
                    <mxGeometry x="37" y="359" width="90" height="30" as="geometry"/>
                </mxCell>
                <mxCell id="fqmAPnziwE6q0jgDyLEG-83" style="edgeStyle=none;html=1;exitX=0.5;exitY=1;exitDx=0;exitDy=0;endArrow=none;endFill=0;entryX=0.5;entryY=0;entryDx=0;entryDy=0;" parent="fqmAPnziwE6q0jgDyLEG-4" source="fqmAPnziwE6q0jgDyLEG-66" target="fqmAPnziwE6q0jgDyLEG-51" edge="1">
                    <mxGeometry relative="1" as="geometry">
                        <mxPoint x="-429" y="477" as="targetPoint"/>
                    </mxGeometry>
                </mxCell>
                <mxCell id="fqmAPnziwE6q0jgDyLEG-84" style="edgeStyle=none;html=1;exitX=0.5;exitY=1;exitDx=0;exitDy=0;endArrow=none;endFill=0;entryX=0.5;entryY=0;entryDx=0;entryDy=0;" parent="fqmAPnziwE6q0jgDyLEG-4" source="fqmAPnziwE6q0jgDyLEG-67" target="fqmAPnziwE6q0jgDyLEG-51" edge="1">
                    <mxGeometry relative="1" as="geometry">
                        <mxPoint x="-429" y="477" as="targetPoint"/>
                    </mxGeometry>
                </mxCell>
                <mxCell id="fqmAPnziwE6q0jgDyLEG-85" style="edgeStyle=none;html=1;exitX=0.5;exitY=1;exitDx=0;exitDy=0;endArrow=none;endFill=0;entryX=0.5;entryY=0;entryDx=0;entryDy=0;" parent="fqmAPnziwE6q0jgDyLEG-4" source="fqmAPnziwE6q0jgDyLEG-79" target="fqmAPnziwE6q0jgDyLEG-51" edge="1">
                    <mxGeometry relative="1" as="geometry">
                        <mxPoint x="-429" y="477" as="targetPoint"/>
                    </mxGeometry>
                </mxCell>
                <mxCell id="fqmAPnziwE6q0jgDyLEG-86" style="edgeStyle=none;html=1;exitX=0.5;exitY=1;exitDx=0;exitDy=0;endArrow=none;endFill=0;entryX=0.5;entryY=0;entryDx=0;entryDy=0;" parent="fqmAPnziwE6q0jgDyLEG-4" source="fqmAPnziwE6q0jgDyLEG-78" target="fqmAPnziwE6q0jgDyLEG-51" edge="1">
                    <mxGeometry relative="1" as="geometry">
                        <mxPoint x="-429" y="477" as="targetPoint"/>
                    </mxGeometry>
                </mxCell>
                <mxCell id="fqmAPnziwE6q0jgDyLEG-87" style="edgeStyle=none;html=1;exitX=0.5;exitY=1;exitDx=0;exitDy=0;endArrow=none;endFill=0;entryX=0.5;entryY=0;entryDx=0;entryDy=0;" parent="fqmAPnziwE6q0jgDyLEG-4" source="fqmAPnziwE6q0jgDyLEG-77" target="fqmAPnziwE6q0jgDyLEG-51" edge="1">
                    <mxGeometry relative="1" as="geometry">
                        <mxPoint x="-429" y="477" as="targetPoint"/>
                    </mxGeometry>
                </mxCell>
                <mxCell id="fqmAPnziwE6q0jgDyLEG-9" value="城市id表" style="swimlane;whiteSpace=wrap;html=1;" parent="Xn3EHZpzcCjz8WQeBtdx-1" vertex="1">
                    <mxGeometry x="140" y="2020" width="345" height="260" as="geometry"/>
                </mxCell>
                <mxCell id="fqmAPnziwE6q0jgDyLEG-178" value="城市id" style="whiteSpace=wrap;html=1;" parent="fqmAPnziwE6q0jgDyLEG-9" vertex="1">
                    <mxGeometry x="135" y="170" width="80" height="34" as="geometry"/>
                </mxCell>
                <mxCell id="fqmAPnziwE6q0jgDyLEG-179" value="id" style="ellipse;whiteSpace=wrap;html=1;" parent="fqmAPnziwE6q0jgDyLEG-9" vertex="1">
                    <mxGeometry x="55" y="80" width="90" height="30" as="geometry"/>
                </mxCell>
                <mxCell id="fqmAPnziwE6q0jgDyLEG-175" style="edgeStyle=none;html=1;exitX=0.5;exitY=0;exitDx=0;exitDy=0;entryX=0.5;entryY=1;entryDx=0;entryDy=0;endArrow=none;endFill=0;" parent="fqmAPnziwE6q0jgDyLEG-9" source="fqmAPnziwE6q0jgDyLEG-178" target="fqmAPnziwE6q0jgDyLEG-179" edge="1">
                    <mxGeometry relative="1" as="geometry"/>
                </mxCell>
                <mxCell id="fqmAPnziwE6q0jgDyLEG-180" value="城市" style="ellipse;whiteSpace=wrap;html=1;" parent="fqmAPnziwE6q0jgDyLEG-9" vertex="1">
                    <mxGeometry x="190" y="90" width="90" height="30" as="geometry"/>
                </mxCell>
                <mxCell id="fqmAPnziwE6q0jgDyLEG-176" style="edgeStyle=none;html=1;exitX=0.5;exitY=0;exitDx=0;exitDy=0;entryX=0.5;entryY=1;entryDx=0;entryDy=0;endArrow=none;endFill=0;" parent="fqmAPnziwE6q0jgDyLEG-9" source="fqmAPnziwE6q0jgDyLEG-178" target="fqmAPnziwE6q0jgDyLEG-180" edge="1">
                    <mxGeometry relative="1" as="geometry"/>
                </mxCell>
                <mxCell id="fqmAPnziwE6q0jgDyLEG-90" value="面试成绩表" style="swimlane;whiteSpace=wrap;html=1;" parent="Xn3EHZpzcCjz8WQeBtdx-1" vertex="1">
                    <mxGeometry x="1770" y="140" width="563" height="350" as="geometry"/>
                </mxCell>
                <mxCell id="fqmAPnziwE6q0jgDyLEG-91" value="面试成绩" style="whiteSpace=wrap;html=1;" parent="fqmAPnziwE6q0jgDyLEG-90" vertex="1">
                    <mxGeometry x="228" y="267" width="120" height="30" as="geometry"/>
                </mxCell>
                <mxCell id="fqmAPnziwE6q0jgDyLEG-92" style="edgeStyle=none;html=1;exitX=0.5;exitY=1;exitDx=0;exitDy=0;entryX=0.5;entryY=0;entryDx=0;entryDy=0;endArrow=none;endFill=0;" parent="fqmAPnziwE6q0jgDyLEG-90" source="fqmAPnziwE6q0jgDyLEG-93" target="fqmAPnziwE6q0jgDyLEG-91" edge="1">
                    <mxGeometry relative="1" as="geometry"/>
                </mxCell>
                <mxCell id="fqmAPnziwE6q0jgDyLEG-93" value="姓名" style="ellipse;whiteSpace=wrap;html=1;" parent="fqmAPnziwE6q0jgDyLEG-90" vertex="1">
                    <mxGeometry x="61" y="157" width="90" height="30" as="geometry"/>
                </mxCell>
                <mxCell id="fqmAPnziwE6q0jgDyLEG-94" value="考试地点" style="ellipse;whiteSpace=wrap;html=1;" parent="fqmAPnziwE6q0jgDyLEG-90" vertex="1">
                    <mxGeometry x="101" y="117" width="90" height="30" as="geometry"/>
                </mxCell>
                <mxCell id="fqmAPnziwE6q0jgDyLEG-96" value="身份证号" style="ellipse;whiteSpace=wrap;html=1;" parent="fqmAPnziwE6q0jgDyLEG-90" vertex="1">
                    <mxGeometry x="151" y="77" width="90" height="30" as="geometry"/>
                </mxCell>
                <mxCell id="fqmAPnziwE6q0jgDyLEG-100" value="工作单位" style="ellipse;whiteSpace=wrap;html=1;" parent="fqmAPnziwE6q0jgDyLEG-90" vertex="1">
                    <mxGeometry x="228" y="103" width="97" height="34" as="geometry"/>
                </mxCell>
                <mxCell id="fqmAPnziwE6q0jgDyLEG-101" value="申请专业" style="ellipse;whiteSpace=wrap;html=1;" parent="fqmAPnziwE6q0jgDyLEG-90" vertex="1">
                    <mxGeometry x="291" y="70" width="107" height="33" as="geometry"/>
                </mxCell>
                <mxCell id="fqmAPnziwE6q0jgDyLEG-103" style="edgeStyle=none;html=1;exitX=0.5;exitY=1;exitDx=0;exitDy=0;endArrow=none;endFill=0;entryX=0.5;entryY=0;entryDx=0;entryDy=0;" parent="fqmAPnziwE6q0jgDyLEG-90" source="fqmAPnziwE6q0jgDyLEG-94" target="fqmAPnziwE6q0jgDyLEG-91" edge="1">
                    <mxGeometry relative="1" as="geometry">
                        <mxPoint x="-481" y="197" as="targetPoint"/>
                    </mxGeometry>
                </mxCell>
                <mxCell id="fqmAPnziwE6q0jgDyLEG-104" style="edgeStyle=none;html=1;exitX=0.5;exitY=1;exitDx=0;exitDy=0;endArrow=none;endFill=0;entryX=0.5;entryY=0;entryDx=0;entryDy=0;" parent="fqmAPnziwE6q0jgDyLEG-90" source="fqmAPnziwE6q0jgDyLEG-96" target="fqmAPnziwE6q0jgDyLEG-91" edge="1">
                    <mxGeometry relative="1" as="geometry">
                        <mxPoint x="-481" y="197" as="targetPoint"/>
                    </mxGeometry>
                </mxCell>
                <mxCell id="fqmAPnziwE6q0jgDyLEG-108" value="性别" style="ellipse;whiteSpace=wrap;html=1;" parent="fqmAPnziwE6q0jgDyLEG-90" vertex="1">
                    <mxGeometry x="431" y="176" width="90" height="30" as="geometry"/>
                </mxCell>
                <mxCell id="fqmAPnziwE6q0jgDyLEG-109" value="考试时间" style="ellipse;whiteSpace=wrap;html=1;" parent="fqmAPnziwE6q0jgDyLEG-90" vertex="1">
                    <mxGeometry x="438" y="97" width="90" height="30" as="geometry"/>
                </mxCell>
                <mxCell id="fqmAPnziwE6q0jgDyLEG-110" value="等级" style="ellipse;whiteSpace=wrap;html=1;" parent="fqmAPnziwE6q0jgDyLEG-90" vertex="1">
                    <mxGeometry x="348" y="117" width="90" height="30" as="geometry"/>
                </mxCell>
                <mxCell id="fqmAPnziwE6q0jgDyLEG-111" style="edgeStyle=none;html=1;exitX=0.5;exitY=1;exitDx=0;exitDy=0;entryX=0.5;entryY=0;entryDx=0;entryDy=0;endArrow=none;endFill=0;" parent="fqmAPnziwE6q0jgDyLEG-90" source="fqmAPnziwE6q0jgDyLEG-112" target="fqmAPnziwE6q0jgDyLEG-91" edge="1">
                    <mxGeometry relative="1" as="geometry"/>
                </mxCell>
                <mxCell id="fqmAPnziwE6q0jgDyLEG-112" value="id" style="ellipse;whiteSpace=wrap;html=1;" parent="fqmAPnziwE6q0jgDyLEG-90" vertex="1">
                    <mxGeometry x="35" y="206" width="90" height="30" as="geometry"/>
                </mxCell>
                <mxCell id="fqmAPnziwE6q0jgDyLEG-113" style="edgeStyle=none;html=1;exitX=0.5;exitY=1;exitDx=0;exitDy=0;endArrow=none;endFill=0;entryX=0.5;entryY=0;entryDx=0;entryDy=0;" parent="fqmAPnziwE6q0jgDyLEG-90" source="fqmAPnziwE6q0jgDyLEG-100" target="fqmAPnziwE6q0jgDyLEG-91" edge="1">
                    <mxGeometry relative="1" as="geometry">
                        <mxPoint x="-431" y="324" as="targetPoint"/>
                    </mxGeometry>
                </mxCell>
                <mxCell id="fqmAPnziwE6q0jgDyLEG-114" style="edgeStyle=none;html=1;exitX=0.5;exitY=1;exitDx=0;exitDy=0;endArrow=none;endFill=0;entryX=0.5;entryY=0;entryDx=0;entryDy=0;" parent="fqmAPnziwE6q0jgDyLEG-90" source="fqmAPnziwE6q0jgDyLEG-101" target="fqmAPnziwE6q0jgDyLEG-91" edge="1">
                    <mxGeometry relative="1" as="geometry">
                        <mxPoint x="-431" y="324" as="targetPoint"/>
                    </mxGeometry>
                </mxCell>
                <mxCell id="fqmAPnziwE6q0jgDyLEG-115" style="edgeStyle=none;html=1;exitX=0.5;exitY=1;exitDx=0;exitDy=0;endArrow=none;endFill=0;entryX=0.5;entryY=0;entryDx=0;entryDy=0;" parent="fqmAPnziwE6q0jgDyLEG-90" source="fqmAPnziwE6q0jgDyLEG-110" target="fqmAPnziwE6q0jgDyLEG-91" edge="1">
                    <mxGeometry relative="1" as="geometry">
                        <mxPoint x="-431" y="324" as="targetPoint"/>
                    </mxGeometry>
                </mxCell>
                <mxCell id="fqmAPnziwE6q0jgDyLEG-116" style="edgeStyle=none;html=1;exitX=0.5;exitY=1;exitDx=0;exitDy=0;endArrow=none;endFill=0;entryX=0.5;entryY=0;entryDx=0;entryDy=0;" parent="fqmAPnziwE6q0jgDyLEG-90" source="fqmAPnziwE6q0jgDyLEG-109" target="fqmAPnziwE6q0jgDyLEG-91" edge="1">
                    <mxGeometry relative="1" as="geometry">
                        <mxPoint x="-431" y="324" as="targetPoint"/>
                    </mxGeometry>
                </mxCell>
                <mxCell id="fqmAPnziwE6q0jgDyLEG-117" style="edgeStyle=none;html=1;exitX=0.5;exitY=1;exitDx=0;exitDy=0;endArrow=none;endFill=0;entryX=0.5;entryY=0;entryDx=0;entryDy=0;" parent="fqmAPnziwE6q0jgDyLEG-90" source="fqmAPnziwE6q0jgDyLEG-108" target="fqmAPnziwE6q0jgDyLEG-91" edge="1">
                    <mxGeometry relative="1" as="geometry">
                        <mxPoint x="-431" y="324" as="targetPoint"/>
                    </mxGeometry>
                </mxCell>
                <mxCell id="fqmAPnziwE6q0jgDyLEG-118" value="证书表" style="swimlane;whiteSpace=wrap;html=1;" parent="Xn3EHZpzcCjz8WQeBtdx-1" vertex="1">
                    <mxGeometry x="1730" y="680" width="563" height="350" as="geometry"/>
                </mxCell>
                <mxCell id="fqmAPnziwE6q0jgDyLEG-119" value="证书" style="whiteSpace=wrap;html=1;" parent="fqmAPnziwE6q0jgDyLEG-118" vertex="1">
                    <mxGeometry x="228" y="267" width="120" height="30" as="geometry"/>
                </mxCell>
                <mxCell id="fqmAPnziwE6q0jgDyLEG-120" style="edgeStyle=none;html=1;exitX=0.5;exitY=1;exitDx=0;exitDy=0;entryX=0.5;entryY=0;entryDx=0;entryDy=0;endArrow=none;endFill=0;" parent="fqmAPnziwE6q0jgDyLEG-118" source="fqmAPnziwE6q0jgDyLEG-121" target="fqmAPnziwE6q0jgDyLEG-119" edge="1">
                    <mxGeometry relative="1" as="geometry"/>
                </mxCell>
                <mxCell id="fqmAPnziwE6q0jgDyLEG-121" value="姓名" style="ellipse;whiteSpace=wrap;html=1;" parent="fqmAPnziwE6q0jgDyLEG-118" vertex="1">
                    <mxGeometry x="150" y="133" width="90" height="30" as="geometry"/>
                </mxCell>
                <mxCell id="fqmAPnziwE6q0jgDyLEG-122" value="面试年份" style="ellipse;whiteSpace=wrap;html=1;" parent="fqmAPnziwE6q0jgDyLEG-118" vertex="1">
                    <mxGeometry x="190" y="87" width="90" height="30" as="geometry"/>
                </mxCell>
                <mxCell id="fqmAPnziwE6q0jgDyLEG-123" value="身份证号" style="ellipse;whiteSpace=wrap;html=1;" parent="fqmAPnziwE6q0jgDyLEG-118" vertex="1">
                    <mxGeometry x="60" y="103" width="90" height="30" as="geometry"/>
                </mxCell>
                <mxCell id="fqmAPnziwE6q0jgDyLEG-124" value="合格证号" style="ellipse;whiteSpace=wrap;html=1;" parent="fqmAPnziwE6q0jgDyLEG-118" vertex="1">
                    <mxGeometry x="260" y="120" width="97" height="34" as="geometry"/>
                </mxCell>
                <mxCell id="fqmAPnziwE6q0jgDyLEG-125" value="专业" style="ellipse;whiteSpace=wrap;html=1;" parent="fqmAPnziwE6q0jgDyLEG-118" vertex="1">
                    <mxGeometry x="323" y="87" width="107" height="33" as="geometry"/>
                </mxCell>
                <mxCell id="fqmAPnziwE6q0jgDyLEG-126" style="edgeStyle=none;html=1;exitX=0.5;exitY=1;exitDx=0;exitDy=0;endArrow=none;endFill=0;entryX=0.5;entryY=0;entryDx=0;entryDy=0;" parent="fqmAPnziwE6q0jgDyLEG-118" source="fqmAPnziwE6q0jgDyLEG-122" target="fqmAPnziwE6q0jgDyLEG-119" edge="1">
                    <mxGeometry relative="1" as="geometry">
                        <mxPoint x="-481" y="197" as="targetPoint"/>
                    </mxGeometry>
                </mxCell>
                <mxCell id="fqmAPnziwE6q0jgDyLEG-127" style="edgeStyle=none;html=1;exitX=0.5;exitY=1;exitDx=0;exitDy=0;endArrow=none;endFill=0;entryX=0.5;entryY=0;entryDx=0;entryDy=0;" parent="fqmAPnziwE6q0jgDyLEG-118" source="fqmAPnziwE6q0jgDyLEG-123" target="fqmAPnziwE6q0jgDyLEG-119" edge="1">
                    <mxGeometry relative="1" as="geometry">
                        <mxPoint x="-481" y="197" as="targetPoint"/>
                    </mxGeometry>
                </mxCell>
                <mxCell id="fqmAPnziwE6q0jgDyLEG-128" value="性别" style="ellipse;whiteSpace=wrap;html=1;" parent="fqmAPnziwE6q0jgDyLEG-118" vertex="1">
                    <mxGeometry x="380" y="133" width="90" height="30" as="geometry"/>
                </mxCell>
                <mxCell id="fqmAPnziwE6q0jgDyLEG-130" value="有效期" style="ellipse;whiteSpace=wrap;html=1;" parent="fqmAPnziwE6q0jgDyLEG-118" vertex="1">
                    <mxGeometry x="430" y="193" width="90" height="30" as="geometry"/>
                </mxCell>
                <mxCell id="fqmAPnziwE6q0jgDyLEG-131" style="edgeStyle=none;html=1;exitX=0.5;exitY=1;exitDx=0;exitDy=0;entryX=0.5;entryY=0;entryDx=0;entryDy=0;endArrow=none;endFill=0;" parent="fqmAPnziwE6q0jgDyLEG-118" source="fqmAPnziwE6q0jgDyLEG-132" target="fqmAPnziwE6q0jgDyLEG-119" edge="1">
                    <mxGeometry relative="1" as="geometry"/>
                </mxCell>
                <mxCell id="fqmAPnziwE6q0jgDyLEG-132" value="id" style="ellipse;whiteSpace=wrap;html=1;" parent="fqmAPnziwE6q0jgDyLEG-118" vertex="1">
                    <mxGeometry x="50" y="163" width="90" height="30" as="geometry"/>
                </mxCell>
                <mxCell id="fqmAPnziwE6q0jgDyLEG-133" style="edgeStyle=none;html=1;exitX=0.5;exitY=1;exitDx=0;exitDy=0;endArrow=none;endFill=0;entryX=0.5;entryY=0;entryDx=0;entryDy=0;" parent="fqmAPnziwE6q0jgDyLEG-118" source="fqmAPnziwE6q0jgDyLEG-124" target="fqmAPnziwE6q0jgDyLEG-119" edge="1">
                    <mxGeometry relative="1" as="geometry">
                        <mxPoint x="-431" y="324" as="targetPoint"/>
                    </mxGeometry>
                </mxCell>
                <mxCell id="fqmAPnziwE6q0jgDyLEG-134" style="edgeStyle=none;html=1;exitX=0.5;exitY=1;exitDx=0;exitDy=0;endArrow=none;endFill=0;entryX=0.5;entryY=0;entryDx=0;entryDy=0;" parent="fqmAPnziwE6q0jgDyLEG-118" source="fqmAPnziwE6q0jgDyLEG-125" target="fqmAPnziwE6q0jgDyLEG-119" edge="1">
                    <mxGeometry relative="1" as="geometry">
                        <mxPoint x="-431" y="324" as="targetPoint"/>
                    </mxGeometry>
                </mxCell>
                <mxCell id="fqmAPnziwE6q0jgDyLEG-135" style="edgeStyle=none;html=1;exitX=0.5;exitY=1;exitDx=0;exitDy=0;endArrow=none;endFill=0;entryX=0.5;entryY=0;entryDx=0;entryDy=0;" parent="fqmAPnziwE6q0jgDyLEG-118" source="fqmAPnziwE6q0jgDyLEG-130" target="fqmAPnziwE6q0jgDyLEG-119" edge="1">
                    <mxGeometry relative="1" as="geometry">
                        <mxPoint x="-431" y="324" as="targetPoint"/>
                    </mxGeometry>
                </mxCell>
                <mxCell id="fqmAPnziwE6q0jgDyLEG-137" style="edgeStyle=none;html=1;exitX=0.5;exitY=1;exitDx=0;exitDy=0;endArrow=none;endFill=0;entryX=0.5;entryY=0;entryDx=0;entryDy=0;" parent="fqmAPnziwE6q0jgDyLEG-118" source="fqmAPnziwE6q0jgDyLEG-128" target="fqmAPnziwE6q0jgDyLEG-119" edge="1">
                    <mxGeometry relative="1" as="geometry">
                        <mxPoint x="-431" y="324" as="targetPoint"/>
                    </mxGeometry>
                </mxCell>
                <mxCell id="fqmAPnziwE6q0jgDyLEG-138" value="笔试成绩统计表" style="swimlane;whiteSpace=wrap;html=1;" parent="Xn3EHZpzcCjz8WQeBtdx-1" vertex="1">
                    <mxGeometry x="870" y="600" width="720" height="469" as="geometry"/>
                </mxCell>
                <mxCell id="fqmAPnziwE6q0jgDyLEG-139" value="笔试成绩统计" style="whiteSpace=wrap;html=1;" parent="fqmAPnziwE6q0jgDyLEG-138" vertex="1">
                    <mxGeometry x="290" y="381" width="120" height="30" as="geometry"/>
                </mxCell>
                <mxCell id="fqmAPnziwE6q0jgDyLEG-140" style="edgeStyle=none;html=1;exitX=0.5;exitY=1;exitDx=0;exitDy=0;entryX=0.5;entryY=0;entryDx=0;entryDy=0;endArrow=none;endFill=0;" parent="fqmAPnziwE6q0jgDyLEG-138" source="fqmAPnziwE6q0jgDyLEG-141" target="fqmAPnziwE6q0jgDyLEG-139" edge="1">
                    <mxGeometry relative="1" as="geometry"/>
                </mxCell>
                <mxCell id="fqmAPnziwE6q0jgDyLEG-141" value="教育学及格分" style="ellipse;whiteSpace=wrap;html=1;" parent="fqmAPnziwE6q0jgDyLEG-138" vertex="1">
                    <mxGeometry x="40" y="228" width="90" height="30" as="geometry"/>
                </mxCell>
                <mxCell id="fqmAPnziwE6q0jgDyLEG-142" value="教育学通过率" style="ellipse;whiteSpace=wrap;html=1;" parent="fqmAPnziwE6q0jgDyLEG-138" vertex="1">
                    <mxGeometry x="40" y="151" width="90" height="30" as="geometry"/>
                </mxCell>
                <mxCell id="fqmAPnziwE6q0jgDyLEG-143" value="教育心理学及格分" style="ellipse;whiteSpace=wrap;html=1;" parent="fqmAPnziwE6q0jgDyLEG-138" vertex="1">
                    <mxGeometry x="214" y="76.5" width="130" height="30" as="geometry"/>
                </mxCell>
                <mxCell id="fqmAPnziwE6q0jgDyLEG-144" value="教育心理学平均成绩" style="ellipse;whiteSpace=wrap;html=1;" parent="fqmAPnziwE6q0jgDyLEG-138" vertex="1">
                    <mxGeometry x="160" y="121" width="120" height="30" as="geometry"/>
                </mxCell>
                <mxCell id="fqmAPnziwE6q0jgDyLEG-145" value="教育学平均分" style="ellipse;whiteSpace=wrap;html=1;" parent="fqmAPnziwE6q0jgDyLEG-138" vertex="1">
                    <mxGeometry x="140" y="167" width="90" height="30" as="geometry"/>
                </mxCell>
                <mxCell id="fqmAPnziwE6q0jgDyLEG-146" style="edgeStyle=none;html=1;exitX=0.5;exitY=1;exitDx=0;exitDy=0;entryX=0.5;entryY=0;entryDx=0;entryDy=0;endArrow=none;endFill=0;" parent="fqmAPnziwE6q0jgDyLEG-138" source="fqmAPnziwE6q0jgDyLEG-147" target="fqmAPnziwE6q0jgDyLEG-139" edge="1">
                    <mxGeometry relative="1" as="geometry"/>
                </mxCell>
                <mxCell id="fqmAPnziwE6q0jgDyLEG-147" value="职业道德修养和高等&lt;br&gt;教育法规平均成绩" style="ellipse;whiteSpace=wrap;html=1;" parent="fqmAPnziwE6q0jgDyLEG-138" vertex="1">
                    <mxGeometry x="373.5" y="71" width="126.5" height="41" as="geometry"/>
                </mxCell>
                <mxCell id="fqmAPnziwE6q0jgDyLEG-148" value="职业道德修养和高等&lt;br style=&quot;border-color: var(--border-color);&quot;&gt;教育法规通过率" style="ellipse;whiteSpace=wrap;html=1;" parent="fqmAPnziwE6q0jgDyLEG-138" vertex="1">
                    <mxGeometry x="440" y="161" width="130" height="42" as="geometry"/>
                </mxCell>
                <mxCell id="fqmAPnziwE6q0jgDyLEG-149" value="职业道德修养和高等&lt;br style=&quot;border-color: var(--border-color);&quot;&gt;教育法规及格分" style="ellipse;whiteSpace=wrap;html=1;" parent="fqmAPnziwE6q0jgDyLEG-138" vertex="1">
                    <mxGeometry x="500" y="223" width="138" height="40" as="geometry"/>
                </mxCell>
                <mxCell id="fqmAPnziwE6q0jgDyLEG-150" value="教育心理学通过率" style="ellipse;whiteSpace=wrap;html=1;" parent="fqmAPnziwE6q0jgDyLEG-138" vertex="1">
                    <mxGeometry x="300" y="141" width="110" height="31" as="geometry"/>
                </mxCell>
                <mxCell id="fqmAPnziwE6q0jgDyLEG-151" style="edgeStyle=none;html=1;exitX=0.5;exitY=1;exitDx=0;exitDy=0;endArrow=none;endFill=0;entryX=0.5;entryY=0;entryDx=0;entryDy=0;" parent="fqmAPnziwE6q0jgDyLEG-138" source="fqmAPnziwE6q0jgDyLEG-142" target="fqmAPnziwE6q0jgDyLEG-139" edge="1">
                    <mxGeometry relative="1" as="geometry">
                        <mxPoint x="-367" y="291" as="targetPoint"/>
                    </mxGeometry>
                </mxCell>
                <mxCell id="fqmAPnziwE6q0jgDyLEG-152" style="edgeStyle=none;html=1;exitX=0.5;exitY=1;exitDx=0;exitDy=0;endArrow=none;endFill=0;entryX=0.5;entryY=0;entryDx=0;entryDy=0;" parent="fqmAPnziwE6q0jgDyLEG-138" source="fqmAPnziwE6q0jgDyLEG-144" target="fqmAPnziwE6q0jgDyLEG-139" edge="1">
                    <mxGeometry relative="1" as="geometry">
                        <mxPoint x="-367" y="291" as="targetPoint"/>
                    </mxGeometry>
                </mxCell>
                <mxCell id="fqmAPnziwE6q0jgDyLEG-153" style="edgeStyle=none;html=1;exitX=0.5;exitY=1;exitDx=0;exitDy=0;endArrow=none;endFill=0;entryX=0.5;entryY=0;entryDx=0;entryDy=0;" parent="fqmAPnziwE6q0jgDyLEG-138" source="fqmAPnziwE6q0jgDyLEG-145" target="fqmAPnziwE6q0jgDyLEG-139" edge="1">
                    <mxGeometry relative="1" as="geometry">
                        <mxPoint x="-367" y="291" as="targetPoint"/>
                    </mxGeometry>
                </mxCell>
                <mxCell id="fqmAPnziwE6q0jgDyLEG-154" style="edgeStyle=none;html=1;exitX=0.5;exitY=1;exitDx=0;exitDy=0;endArrow=none;endFill=0;entryX=0.5;entryY=0;entryDx=0;entryDy=0;" parent="fqmAPnziwE6q0jgDyLEG-138" source="fqmAPnziwE6q0jgDyLEG-143" target="fqmAPnziwE6q0jgDyLEG-139" edge="1">
                    <mxGeometry relative="1" as="geometry">
                        <mxPoint x="440" y="361" as="targetPoint"/>
                    </mxGeometry>
                </mxCell>
                <mxCell id="fqmAPnziwE6q0jgDyLEG-155" style="edgeStyle=none;html=1;exitX=0.5;exitY=1;exitDx=0;exitDy=0;endArrow=none;endFill=0;entryX=0.5;entryY=0;entryDx=0;entryDy=0;" parent="fqmAPnziwE6q0jgDyLEG-138" source="fqmAPnziwE6q0jgDyLEG-150" target="fqmAPnziwE6q0jgDyLEG-139" edge="1">
                    <mxGeometry relative="1" as="geometry">
                        <mxPoint x="-367" y="291" as="targetPoint"/>
                    </mxGeometry>
                </mxCell>
                <mxCell id="fqmAPnziwE6q0jgDyLEG-158" value="三科都通过的通过率" style="ellipse;whiteSpace=wrap;html=1;" parent="fqmAPnziwE6q0jgDyLEG-138" vertex="1">
                    <mxGeometry x="540" y="291" width="140" height="30" as="geometry"/>
                </mxCell>
                <mxCell id="fqmAPnziwE6q0jgDyLEG-159" style="edgeStyle=none;html=1;exitX=0.5;exitY=1;exitDx=0;exitDy=0;entryX=0.5;entryY=0;entryDx=0;entryDy=0;endArrow=none;endFill=0;" parent="fqmAPnziwE6q0jgDyLEG-138" source="fqmAPnziwE6q0jgDyLEG-160" target="fqmAPnziwE6q0jgDyLEG-139" edge="1">
                    <mxGeometry relative="1" as="geometry"/>
                </mxCell>
                <mxCell id="fqmAPnziwE6q0jgDyLEG-160" value="年份" style="ellipse;whiteSpace=wrap;html=1;" parent="fqmAPnziwE6q0jgDyLEG-138" vertex="1">
                    <mxGeometry x="60" y="300" width="90" height="30" as="geometry"/>
                </mxCell>
                <mxCell id="fqmAPnziwE6q0jgDyLEG-161" style="edgeStyle=none;html=1;exitX=0.5;exitY=1;exitDx=0;exitDy=0;endArrow=none;endFill=0;entryX=0.5;entryY=0;entryDx=0;entryDy=0;" parent="fqmAPnziwE6q0jgDyLEG-138" source="fqmAPnziwE6q0jgDyLEG-148" target="fqmAPnziwE6q0jgDyLEG-139" edge="1">
                    <mxGeometry relative="1" as="geometry">
                        <mxPoint x="-317" y="418" as="targetPoint"/>
                    </mxGeometry>
                </mxCell>
                <mxCell id="fqmAPnziwE6q0jgDyLEG-162" style="edgeStyle=none;html=1;exitX=0.5;exitY=1;exitDx=0;exitDy=0;endArrow=none;endFill=0;entryX=0.5;entryY=0;entryDx=0;entryDy=0;" parent="fqmAPnziwE6q0jgDyLEG-138" source="fqmAPnziwE6q0jgDyLEG-149" target="fqmAPnziwE6q0jgDyLEG-139" edge="1">
                    <mxGeometry relative="1" as="geometry">
                        <mxPoint x="-317" y="418" as="targetPoint"/>
                    </mxGeometry>
                </mxCell>
                <mxCell id="fqmAPnziwE6q0jgDyLEG-163" style="edgeStyle=none;html=1;exitX=0.5;exitY=1;exitDx=0;exitDy=0;endArrow=none;endFill=0;entryX=0.5;entryY=0;entryDx=0;entryDy=0;" parent="fqmAPnziwE6q0jgDyLEG-138" source="fqmAPnziwE6q0jgDyLEG-158" target="fqmAPnziwE6q0jgDyLEG-139" edge="1">
                    <mxGeometry relative="1" as="geometry">
                        <mxPoint x="-317" y="418" as="targetPoint"/>
                    </mxGeometry>
                </mxCell>
                <mxCell id="fqmAPnziwE6q0jgDyLEG-266" style="edgeStyle=none;html=1;endArrow=none;endFill=0;" parent="Xn3EHZpzcCjz8WQeBtdx-1" source="fqmAPnziwE6q0jgDyLEG-202" target="fqmAPnziwE6q0jgDyLEG-265" edge="1">
                    <mxGeometry relative="1" as="geometry"/>
                </mxCell>
                <mxCell id="fqmAPnziwE6q0jgDyLEG-267" value="1" style="edgeLabel;html=1;align=center;verticalAlign=middle;resizable=0;points=[];" parent="fqmAPnziwE6q0jgDyLEG-266" vertex="1" connectable="0">
                    <mxGeometry x="-0.7613" y="1" relative="1" as="geometry">
                        <mxPoint as="offset"/>
                    </mxGeometry>
                </mxCell>
                <mxCell id="fqmAPnziwE6q0jgDyLEG-202" value="面试成绩" style="whiteSpace=wrap;html=1;" parent="Xn3EHZpzcCjz8WQeBtdx-1" vertex="1">
                    <mxGeometry x="1510" y="1464" width="120" height="30" as="geometry"/>
                </mxCell>
                <mxCell id="fqmAPnziwE6q0jgDyLEG-203" value="证书" style="whiteSpace=wrap;html=1;" parent="Xn3EHZpzcCjz8WQeBtdx-1" vertex="1">
                    <mxGeometry x="1374" y="1557.5" width="120" height="30" as="geometry"/>
                </mxCell>
                <mxCell id="fqmAPnziwE6q0jgDyLEG-230" value="" style="edgeStyle=none;html=1;endArrow=none;endFill=0;" parent="Xn3EHZpzcCjz8WQeBtdx-1" source="fqmAPnziwE6q0jgDyLEG-204" target="fqmAPnziwE6q0jgDyLEG-229" edge="1">
                    <mxGeometry relative="1" as="geometry"/>
                </mxCell>
                <mxCell id="fqmAPnziwE6q0jgDyLEG-233" value="n" style="edgeLabel;html=1;align=center;verticalAlign=middle;resizable=0;points=[];" parent="fqmAPnziwE6q0jgDyLEG-230" vertex="1" connectable="0">
                    <mxGeometry x="-0.3429" y="-2" relative="1" as="geometry">
                        <mxPoint as="offset"/>
                    </mxGeometry>
                </mxCell>
                <mxCell id="fqmAPnziwE6q0jgDyLEG-241" value="" style="edgeStyle=none;html=1;endArrow=none;endFill=0;" parent="Xn3EHZpzcCjz8WQeBtdx-1" source="fqmAPnziwE6q0jgDyLEG-204" target="fqmAPnziwE6q0jgDyLEG-240" edge="1">
                    <mxGeometry relative="1" as="geometry"/>
                </mxCell>
                <mxCell id="fqmAPnziwE6q0jgDyLEG-243" value="1" style="edgeLabel;html=1;align=center;verticalAlign=middle;resizable=0;points=[];" parent="fqmAPnziwE6q0jgDyLEG-241" vertex="1" connectable="0">
                    <mxGeometry x="-0.3181" relative="1" as="geometry">
                        <mxPoint as="offset"/>
                    </mxGeometry>
                </mxCell>
                <mxCell id="fqmAPnziwE6q0jgDyLEG-204" value="笔试成绩" style="whiteSpace=wrap;html=1;" parent="Xn3EHZpzcCjz8WQeBtdx-1" vertex="1">
                    <mxGeometry x="1034" y="1557" width="120" height="30" as="geometry"/>
                </mxCell>
                <mxCell id="fqmAPnziwE6q0jgDyLEG-212" value="" style="edgeStyle=none;html=1;endArrow=none;endFill=0;" parent="Xn3EHZpzcCjz8WQeBtdx-1" source="fqmAPnziwE6q0jgDyLEG-206" target="fqmAPnziwE6q0jgDyLEG-211" edge="1">
                    <mxGeometry relative="1" as="geometry"/>
                </mxCell>
                <mxCell id="fqmAPnziwE6q0jgDyLEG-213" value="" style="edgeStyle=none;html=1;endArrow=none;endFill=0;" parent="Xn3EHZpzcCjz8WQeBtdx-1" source="fqmAPnziwE6q0jgDyLEG-206" target="fqmAPnziwE6q0jgDyLEG-211" edge="1">
                    <mxGeometry relative="1" as="geometry"/>
                </mxCell>
                <mxCell id="fqmAPnziwE6q0jgDyLEG-214" value="1" style="edgeLabel;html=1;align=center;verticalAlign=middle;resizable=0;points=[];" parent="fqmAPnziwE6q0jgDyLEG-213" vertex="1" connectable="0">
                    <mxGeometry x="-0.5117" relative="1" as="geometry">
                        <mxPoint as="offset"/>
                    </mxGeometry>
                </mxCell>
                <mxCell id="fqmAPnziwE6q0jgDyLEG-236" value="" style="edgeStyle=none;html=1;endArrow=none;endFill=0;" parent="Xn3EHZpzcCjz8WQeBtdx-1" source="fqmAPnziwE6q0jgDyLEG-206" target="fqmAPnziwE6q0jgDyLEG-235" edge="1">
                    <mxGeometry relative="1" as="geometry"/>
                </mxCell>
                <mxCell id="fqmAPnziwE6q0jgDyLEG-238" value="1" style="edgeLabel;html=1;align=center;verticalAlign=middle;resizable=0;points=[];" parent="fqmAPnziwE6q0jgDyLEG-236" vertex="1" connectable="0">
                    <mxGeometry x="-0.2167" y="-1" relative="1" as="geometry">
                        <mxPoint as="offset"/>
                    </mxGeometry>
                </mxCell>
                <mxCell id="fqmAPnziwE6q0jgDyLEG-206" value="用户" style="whiteSpace=wrap;html=1;" parent="Xn3EHZpzcCjz8WQeBtdx-1" vertex="1">
                    <mxGeometry x="1214" y="1460" width="80" height="34" as="geometry"/>
                </mxCell>
                <mxCell id="fqmAPnziwE6q0jgDyLEG-208" value="备份" style="whiteSpace=wrap;html=1;" parent="Xn3EHZpzcCjz8WQeBtdx-1" vertex="1">
                    <mxGeometry x="1034" y="1370" width="120" height="30" as="geometry"/>
                </mxCell>
                <mxCell id="fqmAPnziwE6q0jgDyLEG-209" value="笔试成绩统计" style="whiteSpace=wrap;html=1;" parent="Xn3EHZpzcCjz8WQeBtdx-1" vertex="1">
                    <mxGeometry x="897" y="1455.5" width="120" height="30" as="geometry"/>
                </mxCell>
                <mxCell id="fqmAPnziwE6q0jgDyLEG-215" style="edgeStyle=none;html=1;exitX=0;exitY=0.5;exitDx=0;exitDy=0;entryX=1;entryY=0.5;entryDx=0;entryDy=0;endArrow=none;endFill=0;" parent="Xn3EHZpzcCjz8WQeBtdx-1" source="fqmAPnziwE6q0jgDyLEG-211" target="fqmAPnziwE6q0jgDyLEG-204" edge="1">
                    <mxGeometry relative="1" as="geometry"/>
                </mxCell>
                <mxCell id="fqmAPnziwE6q0jgDyLEG-219" value="n" style="edgeLabel;html=1;align=center;verticalAlign=middle;resizable=0;points=[];" parent="fqmAPnziwE6q0jgDyLEG-215" vertex="1" connectable="0">
                    <mxGeometry x="0.4153" y="-2" relative="1" as="geometry">
                        <mxPoint as="offset"/>
                    </mxGeometry>
                </mxCell>
                <mxCell id="fqmAPnziwE6q0jgDyLEG-216" style="edgeStyle=none;html=1;exitX=1;exitY=0.5;exitDx=0;exitDy=0;endArrow=none;endFill=0;" parent="Xn3EHZpzcCjz8WQeBtdx-1" source="fqmAPnziwE6q0jgDyLEG-211" target="fqmAPnziwE6q0jgDyLEG-203" edge="1">
                    <mxGeometry relative="1" as="geometry"/>
                </mxCell>
                <mxCell id="fqmAPnziwE6q0jgDyLEG-220" value="n" style="edgeLabel;html=1;align=center;verticalAlign=middle;resizable=0;points=[];" parent="fqmAPnziwE6q0jgDyLEG-216" vertex="1" connectable="0">
                    <mxGeometry x="-0.4472" y="1" relative="1" as="geometry">
                        <mxPoint as="offset"/>
                    </mxGeometry>
                </mxCell>
                <mxCell id="fqmAPnziwE6q0jgDyLEG-211" value="管理" style="rhombus;whiteSpace=wrap;html=1;" parent="Xn3EHZpzcCjz8WQeBtdx-1" vertex="1">
                    <mxGeometry x="1214" y="1551" width="80" height="43" as="geometry"/>
                </mxCell>
                <mxCell id="fqmAPnziwE6q0jgDyLEG-231" value="" style="edgeStyle=none;html=1;endArrow=none;endFill=0;" parent="Xn3EHZpzcCjz8WQeBtdx-1" source="fqmAPnziwE6q0jgDyLEG-229" target="fqmAPnziwE6q0jgDyLEG-209" edge="1">
                    <mxGeometry relative="1" as="geometry"/>
                </mxCell>
                <mxCell id="fqmAPnziwE6q0jgDyLEG-234" value="1" style="edgeLabel;html=1;align=center;verticalAlign=middle;resizable=0;points=[];" parent="fqmAPnziwE6q0jgDyLEG-231" vertex="1" connectable="0">
                    <mxGeometry x="-0.5581" y="-2" relative="1" as="geometry">
                        <mxPoint as="offset"/>
                    </mxGeometry>
                </mxCell>
                <mxCell id="fqmAPnziwE6q0jgDyLEG-229" value="统计" style="rhombus;whiteSpace=wrap;html=1;" parent="Xn3EHZpzcCjz8WQeBtdx-1" vertex="1">
                    <mxGeometry x="917" y="1550.5" width="80" height="43" as="geometry"/>
                </mxCell>
                <mxCell id="fqmAPnziwE6q0jgDyLEG-237" value="" style="edgeStyle=none;html=1;endArrow=none;endFill=0;" parent="Xn3EHZpzcCjz8WQeBtdx-1" source="fqmAPnziwE6q0jgDyLEG-235" target="fqmAPnziwE6q0jgDyLEG-202" edge="1">
                    <mxGeometry relative="1" as="geometry"/>
                </mxCell>
                <mxCell id="fqmAPnziwE6q0jgDyLEG-239" value="n" style="edgeLabel;html=1;align=center;verticalAlign=middle;resizable=0;points=[];" parent="fqmAPnziwE6q0jgDyLEG-237" vertex="1" connectable="0">
                    <mxGeometry x="-0.4611" relative="1" as="geometry">
                        <mxPoint as="offset"/>
                    </mxGeometry>
                </mxCell>
                <mxCell id="fqmAPnziwE6q0jgDyLEG-235" value="管理" style="rhombus;whiteSpace=wrap;html=1;" parent="Xn3EHZpzcCjz8WQeBtdx-1" vertex="1">
                    <mxGeometry x="1374" y="1455.5" width="80" height="43" as="geometry"/>
                </mxCell>
                <mxCell id="fqmAPnziwE6q0jgDyLEG-242" value="" style="edgeStyle=none;html=1;endArrow=none;endFill=0;" parent="Xn3EHZpzcCjz8WQeBtdx-1" source="fqmAPnziwE6q0jgDyLEG-240" target="fqmAPnziwE6q0jgDyLEG-208" edge="1">
                    <mxGeometry relative="1" as="geometry"/>
                </mxCell>
                <mxCell id="fqmAPnziwE6q0jgDyLEG-244" value="n" style="edgeLabel;html=1;align=center;verticalAlign=middle;resizable=0;points=[];" parent="fqmAPnziwE6q0jgDyLEG-242" vertex="1" connectable="0">
                    <mxGeometry x="0.3695" y="2" relative="1" as="geometry">
                        <mxPoint as="offset"/>
                    </mxGeometry>
                </mxCell>
                <mxCell id="fqmAPnziwE6q0jgDyLEG-240" value="备份和恢复" style="rhombus;whiteSpace=wrap;html=1;" parent="Xn3EHZpzcCjz8WQeBtdx-1" vertex="1">
                    <mxGeometry x="1054" y="1451" width="80" height="43" as="geometry"/>
                </mxCell>
                <mxCell id="fqmAPnziwE6q0jgDyLEG-245" style="edgeStyle=none;html=1;exitX=1;exitY=0.5;exitDx=0;exitDy=0;entryX=0.061;entryY=0.484;entryDx=0;entryDy=0;entryPerimeter=0;endArrow=none;endFill=0;" parent="Xn3EHZpzcCjz8WQeBtdx-1" source="fqmAPnziwE6q0jgDyLEG-247" target="fqmAPnziwE6q0jgDyLEG-253" edge="1">
                    <mxGeometry relative="1" as="geometry"/>
                </mxCell>
                <mxCell id="fqmAPnziwE6q0jgDyLEG-246" value="1" style="edgeLabel;html=1;align=center;verticalAlign=middle;resizable=0;points=[];" parent="fqmAPnziwE6q0jgDyLEG-245" vertex="1" connectable="0">
                    <mxGeometry x="-0.4544" relative="1" as="geometry">
                        <mxPoint as="offset"/>
                    </mxGeometry>
                </mxCell>
                <mxCell id="fqmAPnziwE6q0jgDyLEG-261" value="" style="edgeStyle=none;html=1;endArrow=none;endFill=0;" parent="Xn3EHZpzcCjz8WQeBtdx-1" source="fqmAPnziwE6q0jgDyLEG-247" target="fqmAPnziwE6q0jgDyLEG-260" edge="1">
                    <mxGeometry relative="1" as="geometry"/>
                </mxCell>
                <mxCell id="fqmAPnziwE6q0jgDyLEG-263" value="1" style="edgeLabel;html=1;align=center;verticalAlign=middle;resizable=0;points=[];" parent="fqmAPnziwE6q0jgDyLEG-261" vertex="1" connectable="0">
                    <mxGeometry x="0.3901" y="1" relative="1" as="geometry">
                        <mxPoint as="offset"/>
                    </mxGeometry>
                </mxCell>
                <mxCell id="fqmAPnziwE6q0jgDyLEG-247" value="认定信息" style="whiteSpace=wrap;html=1;" parent="Xn3EHZpzcCjz8WQeBtdx-1" vertex="1">
                    <mxGeometry x="1194" y="1286.5" width="120" height="30" as="geometry"/>
                </mxCell>
                <mxCell id="fqmAPnziwE6q0jgDyLEG-248" value="城市id" style="whiteSpace=wrap;html=1;" parent="Xn3EHZpzcCjz8WQeBtdx-1" vertex="1">
                    <mxGeometry x="1370" y="1374.5" width="80" height="34" as="geometry"/>
                </mxCell>
                <mxCell id="fqmAPnziwE6q0jgDyLEG-249" style="edgeStyle=none;html=1;exitX=0.5;exitY=0;exitDx=0;exitDy=0;endArrow=none;endFill=0;entryX=0.5;entryY=1;entryDx=0;entryDy=0;" parent="Xn3EHZpzcCjz8WQeBtdx-1" source="fqmAPnziwE6q0jgDyLEG-206" target="fqmAPnziwE6q0jgDyLEG-254" edge="1">
                    <mxGeometry relative="1" as="geometry">
                        <mxPoint x="1264" y="1290" as="sourcePoint"/>
                    </mxGeometry>
                </mxCell>
                <mxCell id="fqmAPnziwE6q0jgDyLEG-257" value="1" style="edgeLabel;html=1;align=center;verticalAlign=middle;resizable=0;points=[];" parent="fqmAPnziwE6q0jgDyLEG-249" vertex="1" connectable="0">
                    <mxGeometry x="-0.3263" y="-1" relative="1" as="geometry">
                        <mxPoint as="offset"/>
                    </mxGeometry>
                </mxCell>
                <mxCell id="fqmAPnziwE6q0jgDyLEG-251" style="edgeStyle=none;html=1;endArrow=none;endFill=0;entryX=0.5;entryY=0;entryDx=0;entryDy=0;" parent="Xn3EHZpzcCjz8WQeBtdx-1" source="fqmAPnziwE6q0jgDyLEG-253" target="fqmAPnziwE6q0jgDyLEG-248" edge="1">
                    <mxGeometry relative="1" as="geometry"/>
                </mxCell>
                <mxCell id="fqmAPnziwE6q0jgDyLEG-252" value="n" style="edgeLabel;html=1;align=center;verticalAlign=middle;resizable=0;points=[];" parent="fqmAPnziwE6q0jgDyLEG-251" vertex="1" connectable="0">
                    <mxGeometry x="-0.4998" y="1" relative="1" as="geometry">
                        <mxPoint as="offset"/>
                    </mxGeometry>
                </mxCell>
                <mxCell id="fqmAPnziwE6q0jgDyLEG-253" value="包含" style="rhombus;whiteSpace=wrap;html=1;" parent="Xn3EHZpzcCjz8WQeBtdx-1" vertex="1">
                    <mxGeometry x="1370" y="1280" width="80" height="43" as="geometry"/>
                </mxCell>
                <mxCell id="fqmAPnziwE6q0jgDyLEG-255" value="" style="edgeStyle=none;html=1;endArrow=none;endFill=0;" parent="Xn3EHZpzcCjz8WQeBtdx-1" source="fqmAPnziwE6q0jgDyLEG-254" target="fqmAPnziwE6q0jgDyLEG-247" edge="1">
                    <mxGeometry relative="1" as="geometry"/>
                </mxCell>
                <mxCell id="fqmAPnziwE6q0jgDyLEG-259" value="n" style="edgeLabel;html=1;align=center;verticalAlign=middle;resizable=0;points=[];" parent="fqmAPnziwE6q0jgDyLEG-255" vertex="1" connectable="0">
                    <mxGeometry x="0.6303" y="2" relative="1" as="geometry">
                        <mxPoint as="offset"/>
                    </mxGeometry>
                </mxCell>
                <mxCell id="fqmAPnziwE6q0jgDyLEG-254" value="管理" style="rhombus;whiteSpace=wrap;html=1;" parent="Xn3EHZpzcCjz8WQeBtdx-1" vertex="1">
                    <mxGeometry x="1214" y="1370" width="80" height="43" as="geometry"/>
                </mxCell>
                <mxCell id="fqmAPnziwE6q0jgDyLEG-262" value="" style="edgeStyle=none;html=1;endArrow=none;endFill=0;" parent="Xn3EHZpzcCjz8WQeBtdx-1" source="fqmAPnziwE6q0jgDyLEG-260" target="fqmAPnziwE6q0jgDyLEG-208" edge="1">
                    <mxGeometry relative="1" as="geometry"/>
                </mxCell>
                <mxCell id="fqmAPnziwE6q0jgDyLEG-264" value="n" style="edgeLabel;html=1;align=center;verticalAlign=middle;resizable=0;points=[];" parent="fqmAPnziwE6q0jgDyLEG-262" vertex="1" connectable="0">
                    <mxGeometry x="0.4441" y="-2" relative="1" as="geometry">
                        <mxPoint as="offset"/>
                    </mxGeometry>
                </mxCell>
                <mxCell id="fqmAPnziwE6q0jgDyLEG-260" value="备份和恢复" style="rhombus;whiteSpace=wrap;html=1;" parent="Xn3EHZpzcCjz8WQeBtdx-1" vertex="1">
                    <mxGeometry x="1054" y="1280" width="80" height="43" as="geometry"/>
                </mxCell>
                <mxCell id="fqmAPnziwE6q0jgDyLEG-268" style="edgeStyle=none;html=1;exitX=0;exitY=0.5;exitDx=0;exitDy=0;entryX=0;entryY=0.5;entryDx=0;entryDy=0;endArrow=none;endFill=0;strokeWidth=1;strokeColor=default;" parent="Xn3EHZpzcCjz8WQeBtdx-1" source="fqmAPnziwE6q0jgDyLEG-265" target="fqmAPnziwE6q0jgDyLEG-208" edge="1">
                    <mxGeometry relative="1" as="geometry">
                        <Array as="points">
                            <mxPoint x="960" y="1250"/>
                            <mxPoint x="960" y="1385"/>
                        </Array>
                    </mxGeometry>
                </mxCell>
                <mxCell id="fqmAPnziwE6q0jgDyLEG-269" value="n" style="edgeLabel;html=1;align=center;verticalAlign=middle;resizable=0;points=[];" parent="fqmAPnziwE6q0jgDyLEG-268" vertex="1" connectable="0">
                    <mxGeometry x="0.9235" y="-1" relative="1" as="geometry">
                        <mxPoint as="offset"/>
                    </mxGeometry>
                </mxCell>
                <mxCell id="fqmAPnziwE6q0jgDyLEG-265" value="备份和恢复" style="rhombus;whiteSpace=wrap;html=1;" parent="Xn3EHZpzcCjz8WQeBtdx-1" vertex="1">
                    <mxGeometry x="1530" y="1230" width="80" height="43" as="geometry"/>
                </mxCell>
            </root>
        </mxGraphModel>
    </diagram>
</mxfile>